<svg width="40" height="60" viewBox="0 0 40 60" fill="none" xmlns="http://www.w3.org/2000/svg">
<path d="M3.88776 46.3334C4.33879 46.7844 5.07006 46.7844 5.52109 46.3334L11.4215 40.4329C11.7818 40.0726 12.3521 40.0481 12.7896 40.3093C13.1835 40.5444 13.6093 40.7441 14.0669 40.9084C14.8253 41.1806 15.6322 41.3167 16.4878 41.3167C18.6072 41.3167 20.401 40.5827 21.869 39.1146C23.3371 37.6466 24.0711 35.8528 24.0711 33.7334C24.0711 31.6139 23.3371 29.8202 21.869 28.3521C20.401 26.8841 18.6072 26.15 16.4878 26.15C14.3683 26.15 12.5746 26.8841 11.1065 28.3521C9.63845 29.8202 8.90442 31.6139 8.90442 33.7334C8.90442 34.5889 9.04054 35.3959 9.31276 36.1542C9.47704 36.6118 9.67673 37.0376 9.91183 37.4315C10.173 37.8691 10.1485 38.4393 9.7882 38.7996L3.88776 44.7C3.43673 45.1511 3.43672 45.8823 3.88776 46.3334V46.3334ZM16.4878 38.9834C15.0294 38.9834 13.7898 38.4729 12.769 37.4521C11.7482 36.4313 11.2378 35.1917 11.2378 33.7334C11.2378 32.275 11.7482 31.0354 12.769 30.0146C13.7898 28.9938 15.0294 28.4834 16.4878 28.4834C17.9461 28.4834 19.1857 28.9938 20.2065 30.0146C21.2273 31.0354 21.7378 32.275 21.7378 33.7334C21.7378 35.1917 21.2273 36.4313 20.2065 37.4521C19.1857 38.4729 17.9461 38.9834 16.4878 38.9834Z" fill="white"/>
<path d="M12 46H34V22L28 15H12V22" stroke="white" stroke-width="4" stroke-linecap="round" stroke-linejoin="round"/>
<path d="M25 15V24H34" stroke="white" stroke-width="4" stroke-linecap="round" stroke-linejoin="round"/>
</svg>
