<svg width="40" height="60" viewBox="0 0 40 60" fill="none" xmlns="http://www.w3.org/2000/svg">
<path fill-rule="evenodd" clip-rule="evenodd" d="M12.2105 13C13.2279 13 14.0526 13.8247 14.0526 14.8421C14.0526 17.2833 12.8506 19.5703 11.2105 21.2105C9.57035 22.8506 7.28332 24.0526 4.84211 24.0526C3.82474 24.0526 3 23.2279 3 22.2105C3 21.1932 3.82474 20.3684 4.84211 20.3684C6.0851 20.3684 7.48228 19.7284 8.60533 18.6053C9.72838 17.4823 10.3684 16.0851 10.3684 14.8421C10.3684 13.8247 11.1932 13 12.2105 13ZM19.5789 13C20.5963 13 21.4211 13.8247 21.4211 14.8421C21.4211 19.1254 19.2979 23.2546 16.2762 26.2762C13.2546 29.2979 9.12543 31.4211 4.84211 31.4211C3.82474 31.4211 3 30.5963 3 29.5789C3 28.5616 3.82474 27.7368 4.84211 27.7368C7.92721 27.7368 11.1665 26.1757 13.6711 23.6711C16.1757 21.1665 17.7368 17.9272 17.7368 14.8421C17.7368 13.8247 18.5616 13 19.5789 13Z" fill="white"/>
<path d="M38 36.9474C38 43.0516 33.0516 48 26.9474 48C20.8432 48 15.8947 43.0516 15.8947 36.9474C15.8947 30.8432 20.8432 25.8947 26.9474 25.8947C33.0516 25.8947 38 30.8432 38 36.9474ZM19.7632 36.9474C19.7632 40.9151 22.9796 44.1316 26.9474 44.1316C30.9151 44.1316 34.1316 40.9151 34.1316 36.9474C34.1316 32.9796 30.9151 29.7632 26.9474 29.7632C22.9796 29.7632 19.7632 32.9796 19.7632 36.9474Z" fill="white"/>
</svg>
