<svg width="40" height="60" viewBox="0 0 40 60" fill="none" xmlns="http://www.w3.org/2000/svg">
<path d="M32.5876 33.7407C32.8259 33.7407 33.0311 33.5726 33.0779 33.339L33.3348 32.0575C33.3675 31.8942 33.4798 31.7588 33.6318 31.6909C33.8014 31.6151 33.9635 31.5368 34.1181 31.456C34.2797 31.3715 34.4441 31.2734 34.6113 31.1616C34.7422 31.0741 34.9051 31.0459 35.0555 31.0925L36.3229 31.4849C36.5443 31.5534 36.7837 31.4609 36.9015 31.2612L37.7885 29.7569C37.911 29.5491 37.8677 29.2833 37.6854 29.1252L36.7143 28.2828C36.5845 28.1702 36.5233 27.9989 36.5411 27.828C36.5608 27.6384 36.5707 27.4488 36.5707 27.2593C36.5707 27.0697 36.5608 26.8801 36.5411 26.6905C36.5233 26.5196 36.5845 26.3483 36.7143 26.2357L37.6854 25.3933C37.8677 25.2352 37.911 24.9695 37.7885 24.7616L36.9015 23.2573C36.7837 23.0577 36.5443 22.9651 36.3229 23.0336L35.0555 23.426C34.9051 23.4726 34.7422 23.4444 34.6113 23.3569C34.4441 23.2451 34.2797 23.147 34.1181 23.0625C33.9635 22.9817 33.8014 22.9034 33.6318 22.8276C33.4798 22.7597 33.3675 22.6243 33.3348 22.461L33.0779 21.1795C33.0311 20.9459 32.8259 20.7778 32.5876 20.7778H30.8083C30.57 20.7778 30.3649 20.9459 30.318 21.1795L30.0611 22.461C30.0284 22.6243 29.9161 22.7597 29.7641 22.8276C29.5945 22.9034 29.4324 22.9817 29.2778 23.0625C29.1162 23.147 28.9518 23.2451 28.7846 23.3569C28.6537 23.4444 28.4909 23.4726 28.3404 23.426L27.073 23.0336C26.8517 22.9651 26.6122 23.0577 26.4945 23.2573L25.6074 24.7616C25.4849 24.9695 25.5283 25.2352 25.7105 25.3933L26.6816 26.2357C26.8114 26.3483 26.8726 26.5196 26.8548 26.6905C26.8351 26.8801 26.8252 27.0697 26.8252 27.2593C26.8252 27.4488 26.8351 27.6384 26.8548 27.828C26.8726 27.9989 26.8114 28.1702 26.6816 28.2828L25.7105 29.1252C25.5283 29.2833 25.4849 29.5491 25.6074 29.7569L26.4945 31.2612C26.6122 31.4609 26.8517 31.5534 27.073 31.4849L28.3404 31.0925C28.4909 31.0459 28.6537 31.0741 28.7846 31.1616C28.9518 31.2734 29.1162 31.3715 29.2778 31.456C29.4324 31.5368 29.5945 31.6151 29.7641 31.6909C29.9161 31.7588 30.0284 31.8942 30.0611 32.0575L30.318 33.339C30.3649 33.5726 30.57 33.7407 30.8083 33.7407H32.5876ZM31.698 29.8519C30.9833 29.8519 30.3715 29.598 29.8626 29.0903C29.3536 28.5826 29.0992 27.9722 29.0992 27.2593C29.0992 26.5463 29.3536 25.936 29.8626 25.4282C30.3715 24.9205 30.9833 24.6667 31.698 24.6667C32.4126 24.6667 33.0244 24.9205 33.5333 25.4282C34.0423 25.936 34.2967 26.5463 34.2967 27.2593C34.2967 27.9722 34.0423 28.5826 33.5333 29.0903C33.0244 29.598 32.4126 29.8519 31.698 29.8519ZM20.9638 48C21.1995 48 21.4032 47.8354 21.4527 47.605L21.8938 45.5514C21.9303 45.3814 22.0531 45.244 22.2145 45.1792C22.4838 45.0709 22.7376 44.9472 22.9758 44.8079C23.217 44.6668 23.4549 44.5099 23.6897 44.337C23.8237 44.2383 23.9965 44.2067 24.1548 44.258L26.1177 44.8944C26.3411 44.9669 26.5849 44.874 26.7035 44.6712L28.1108 42.2645C28.2319 42.0573 28.1888 41.7932 28.0079 41.6354L26.4376 40.2646C26.3141 40.1569 26.2522 39.9955 26.2663 39.8323C26.2924 39.5302 26.3055 39.228 26.3055 38.9259C26.3055 38.6238 26.2924 38.3217 26.2663 38.0196C26.2522 37.8563 26.3141 37.695 26.4376 37.5872L28.0079 36.2164C28.1888 36.0586 28.2319 35.7946 28.1108 35.5874L26.7035 33.1807C26.5849 32.9779 26.3411 32.885 26.1177 32.9574L24.1548 33.5938C23.9965 33.6452 23.8237 33.6135 23.6897 33.5149C23.4549 33.342 23.217 33.185 22.9758 33.044C22.7376 32.9047 22.4838 32.7809 22.2145 32.6727C22.0531 32.6079 21.9303 32.4704 21.8938 32.3004L21.4527 30.2468C21.4032 30.0164 21.1995 29.8519 20.9638 29.8519H18.1335C17.8978 29.8519 17.6942 30.0164 17.6447 30.2468L17.2036 32.3004C17.167 32.4704 17.0442 32.6079 16.8829 32.6727C16.6135 32.7809 16.3597 32.9047 16.1215 33.044C15.8804 33.185 15.6424 33.342 15.4076 33.5149C15.2736 33.6135 15.1008 33.6452 14.9425 33.5938L12.9797 32.9574C12.7562 32.885 12.5124 32.9779 12.3938 33.1807L10.9866 35.5874C10.8654 35.7946 10.9086 36.0586 11.0894 36.2164L12.6597 37.5872C12.7832 37.695 12.8452 37.8563 12.831 38.0196C12.8049 38.3217 12.7918 38.6238 12.7918 38.9259C12.7918 39.228 12.8049 39.5302 12.831 39.8323C12.8452 39.9955 12.7832 40.1569 12.6597 40.2646L11.0894 41.6354C10.9086 41.7932 10.8654 42.0573 10.9866 42.2645L12.3938 44.6712C12.5124 44.874 12.7562 44.9669 12.9797 44.8944L14.9425 44.258C15.1008 44.2067 15.2736 44.2383 15.4076 44.337C15.6424 44.5099 15.8804 44.6668 16.1215 44.8079C16.3597 44.9472 16.6135 45.0709 16.8829 45.1792C17.0442 45.244 17.167 45.3814 17.2036 45.5514L17.6447 47.605C17.6942 47.8354 17.8978 48 18.1335 48H20.9638ZM19.5487 42.8148C18.4658 42.8148 17.5454 42.4367 16.7875 41.6806C16.0295 40.9244 15.6505 40.0062 15.6505 38.9259C15.6505 37.8457 16.0295 36.9275 16.7875 36.1713C17.5454 35.4151 18.4658 35.037 19.5487 35.037C20.6315 35.037 21.5519 35.4151 22.3099 36.1713C23.0678 36.9275 23.4468 37.8457 23.4468 38.9259C23.4468 40.0062 23.0678 40.9244 22.3099 41.6806C21.5519 42.4367 20.6315 42.8148 19.5487 42.8148Z" fill="white"/>
<path fill-rule="evenodd" clip-rule="evenodd" d="M33.6318 31.6909C33.4798 31.7588 33.3675 31.8942 33.3348 32.0575L33.0779 33.339C33.0311 33.5726 32.8259 33.7407 32.5876 33.7407H30.8083C30.57 33.7407 30.3649 33.5726 30.318 33.339L30.0611 32.0575C30.0284 31.8942 29.9161 31.7588 29.7641 31.6909C29.5945 31.6151 29.4324 31.5368 29.2778 31.456C29.1162 31.3715 28.9518 31.2734 28.7846 31.1616C28.6537 31.0741 28.4909 31.0459 28.3404 31.0925L27.073 31.4849C26.8517 31.5534 26.6122 31.4609 26.4945 31.2612L25.6074 29.7569C25.4849 29.5491 25.5283 29.2833 25.7105 29.1252L26.6816 28.2828C26.8114 28.1702 26.8726 27.9989 26.8548 27.828C26.8351 27.6384 26.8252 27.4488 26.8252 27.2593C26.8252 27.0697 26.8351 26.8801 26.8548 26.6905C26.8726 26.5196 26.8114 26.3483 26.6816 26.2357L25.7105 25.3933C25.5283 25.2352 25.4849 24.9695 25.6074 24.7616L26.4945 23.2573C26.6122 23.0577 26.8517 22.9651 27.073 23.0336L28.3404 23.426C28.4909 23.4726 28.6537 23.4444 28.7846 23.3569C28.9518 23.2451 29.1162 23.147 29.2778 23.0625C29.4324 22.9817 29.5945 22.9034 29.7641 22.8276C29.9161 22.7597 30.0284 22.6243 30.0611 22.461L30.318 21.1795C30.3649 20.9459 30.57 20.7778 30.8083 20.7778H32.5876C32.8259 20.7778 33.0311 20.9459 33.0779 21.1795L33.3348 22.461C33.3675 22.6243 33.4798 22.7597 33.6318 22.8276C33.8014 22.9034 33.9635 22.9817 34.1181 23.0625C34.2797 23.147 34.4441 23.2451 34.6113 23.3569C34.7422 23.4444 34.9051 23.4726 35.0555 23.426L36.3229 23.0336C36.5443 22.9651 36.7837 23.0577 36.9015 23.2573L37.7885 24.7616C37.911 24.9695 37.8677 25.2352 37.6854 25.3933L36.7143 26.2357C36.5845 26.3483 36.5233 26.5196 36.5411 26.6905C36.5608 26.8801 36.5707 27.0697 36.5707 27.2593C36.5707 27.4488 36.5608 27.6384 36.5411 27.828C36.5233 27.9989 36.5845 28.1702 36.7143 28.2828L37.6854 29.1252C37.8677 29.2833 37.911 29.5491 37.7885 29.7569L36.9015 31.2612C36.7837 31.4609 36.5443 31.5534 36.3229 31.4849L35.0555 31.0925C34.9051 31.0459 34.7422 31.0741 34.6113 31.1616C34.4441 31.2734 34.2797 31.3715 34.1181 31.456C33.9635 31.5368 33.8014 31.6151 33.6318 31.6909ZM36.8568 31.1456C36.739 31.3453 36.4996 31.4378 36.2782 31.3693L34.8452 30.9256C34.816 30.9166 34.7842 30.9218 34.7594 30.9398V30.9398C34.5245 31.1103 34.2957 31.2535 34.073 31.3699C33.8484 31.4872 33.6074 31.5995 33.3498 31.7065V31.7065C33.32 31.7189 33.2982 31.7454 33.2918 31.7772L32.9982 33.2418C32.9514 33.4754 32.7462 33.6435 32.508 33.6435H30.8879C30.6497 33.6435 30.4445 33.4754 30.3977 33.2418L30.1041 31.7772C30.0977 31.7454 30.076 31.7189 30.0461 31.7065V31.7065C29.7886 31.5995 29.5475 31.4872 29.3229 31.3699C29.1002 31.2535 28.8714 31.1103 28.6365 30.9398V30.9398C28.6117 30.9218 28.5799 30.9166 28.5507 30.9256L27.1177 31.3693C26.8963 31.4378 26.6569 31.3453 26.5392 31.1456L25.7323 29.7773C25.6098 29.5694 25.6531 29.3037 25.8354 29.1456L26.9539 28.1753C26.9792 28.1534 26.9914 28.1201 26.9863 28.087V28.087C26.9437 27.811 26.9225 27.5351 26.9225 27.2593C26.9225 26.9834 26.9437 26.7075 26.9863 26.4315V26.4315C26.9914 26.3985 26.9792 26.3651 26.9539 26.3432L25.8354 25.3729C25.6531 25.2148 25.6098 24.9491 25.7323 24.7413L26.5392 23.3729C26.6569 23.1733 26.8963 23.0807 27.1177 23.1492L28.5507 23.5929C28.5799 23.6019 28.6117 23.5967 28.6365 23.5787V23.5787C28.8714 23.4082 29.1002 23.265 29.3229 23.1487C29.5475 23.0313 29.7886 22.919 30.0461 22.812V22.812C30.076 22.7996 30.0977 22.7731 30.1041 22.7413L30.3977 21.2767C30.4445 21.0431 30.6497 20.875 30.8879 20.875H32.508C32.7462 20.875 32.9514 21.0431 32.9982 21.2767L33.2918 22.7413C33.2982 22.7731 33.32 22.7996 33.3498 22.812V22.812C33.6074 22.919 33.8484 23.0313 34.073 23.1487C34.2957 23.265 34.5245 23.4082 34.7594 23.5787V23.5787C34.7842 23.5967 34.816 23.6019 34.8452 23.5929L36.2782 23.1492C36.4996 23.0807 36.739 23.1733 36.8568 23.3729L37.6636 24.7412C37.7861 24.9491 37.7428 25.2148 37.5605 25.3729L36.442 26.3432C36.4167 26.3651 36.4045 26.3985 36.4096 26.4315V26.4315C36.4522 26.7075 36.4734 26.9834 36.4734 27.2593C36.4734 27.5351 36.4522 27.811 36.4096 28.087V28.087C36.4045 28.1201 36.4167 28.1534 36.442 28.1753L37.5605 29.1456C37.7428 29.3037 37.7861 29.5694 37.6636 29.7773L36.8568 31.1456ZM22.2145 45.1792C22.0531 45.244 21.9303 45.3814 21.8938 45.5514L21.4527 47.605C21.4032 47.8354 21.1995 48 20.9638 48H18.1335C17.8978 48 17.6942 47.8354 17.6447 47.605L17.2036 45.5514C17.167 45.3814 17.0442 45.244 16.8829 45.1792C16.6135 45.0709 16.3597 44.9472 16.1215 44.8079C15.8804 44.6668 15.6424 44.5099 15.4076 44.337C15.2736 44.2383 15.1008 44.2067 14.9425 44.258L12.9797 44.8944C12.7562 44.9669 12.5124 44.874 12.3938 44.6712L10.9866 42.2645C10.8654 42.0573 10.9086 41.7932 11.0894 41.6354L12.6597 40.2646C12.7832 40.1569 12.8452 39.9955 12.831 39.8323C12.8049 39.5302 12.7918 39.228 12.7918 38.9259C12.7918 38.6238 12.8049 38.3217 12.831 38.0196C12.8452 37.8563 12.7832 37.695 12.6597 37.5872L11.0894 36.2164C10.9086 36.0586 10.8654 35.7946 10.9866 35.5874L12.3938 33.1807C12.5124 32.9779 12.7562 32.885 12.9797 32.9574L14.9425 33.5938C15.1008 33.6452 15.2736 33.6135 15.4076 33.5149C15.6424 33.342 15.8804 33.185 16.1215 33.044C16.3597 32.9047 16.6135 32.7809 16.8829 32.6727C17.0442 32.6079 17.167 32.4704 17.2036 32.3004L17.6447 30.2468C17.6942 30.0164 17.8978 29.8519 18.1335 29.8519H20.9638C21.1995 29.8519 21.4032 30.0164 21.4527 30.2468L21.8938 32.3004C21.9303 32.4704 22.0531 32.6079 22.2145 32.6727C22.4838 32.7809 22.7376 32.9047 22.9758 33.044C23.217 33.185 23.4549 33.342 23.6897 33.5149C23.8237 33.6135 23.9965 33.6452 24.1548 33.5938L26.1177 32.9574C26.3411 32.885 26.5849 32.9779 26.7035 33.1807L28.1108 35.5874C28.2319 35.7946 28.1888 36.0586 28.0079 36.2164L26.4376 37.5872C26.3141 37.695 26.2522 37.8563 26.2663 38.0196C26.2924 38.3217 26.3055 38.6238 26.3055 38.9259C26.3055 39.228 26.2924 39.5302 26.2663 39.8323C26.2522 39.9955 26.3141 40.1569 26.4376 40.2646L28.0079 41.6354C28.1888 41.7932 28.2319 42.0573 28.1108 42.2645L26.7035 44.6712C26.5849 44.874 26.3411 44.9669 26.1177 44.8944L24.1548 44.258C23.9965 44.2067 23.8237 44.2383 23.6897 44.337C23.4549 44.5099 23.217 44.6668 22.9758 44.8079C22.7376 44.9472 22.4838 45.0709 22.2145 45.1792ZM26.6591 44.5546C26.5405 44.7574 26.2967 44.8503 26.0732 44.7778L23.9316 44.0834C23.9008 44.0735 23.8671 44.0795 23.8416 44.0994V44.0994C23.5417 44.3345 23.2367 44.5427 22.9267 44.7239C22.6184 44.9043 22.283 45.0583 21.9202 45.1861V45.1861C21.8883 45.1973 21.8646 45.2243 21.8575 45.2574L21.3741 47.5078C21.3246 47.7382 21.1209 47.9028 20.8852 47.9028H18.2121C17.9764 47.9028 17.7727 47.7382 17.7232 47.5078L17.2398 45.2574C17.2327 45.2243 17.209 45.1973 17.1771 45.1861V45.1861C16.8143 45.0583 16.4789 44.9043 16.1706 44.7239C15.8606 44.5427 15.5556 44.3345 15.2557 44.0994V44.0994C15.2302 44.0795 15.1965 44.0735 15.1657 44.0834L13.0241 44.7778C12.8006 44.8503 12.5568 44.7574 12.4383 44.5546L11.1111 42.2848C10.9899 42.0776 11.0331 41.8136 11.2139 41.6558L12.9207 40.1658C12.9447 40.1449 12.957 40.1135 12.9534 40.0818V40.0818C12.9105 39.6965 12.8891 39.3112 12.8891 38.9259C12.8891 38.5407 12.9105 38.1554 12.9534 37.77V37.77C12.957 37.7384 12.9447 37.707 12.9207 37.686L11.2139 36.1961C11.0331 36.0383 10.9899 35.7742 11.1111 35.567L12.4383 33.2973C12.5568 33.0945 12.8006 33.0016 13.0241 33.074L15.1657 33.7684C15.1965 33.7784 15.2302 33.7724 15.2557 33.7524V33.7524C15.5556 33.5173 15.8606 33.3092 16.1706 33.1279C16.4789 32.9476 16.8143 32.7935 17.1771 32.6658V32.6658C17.209 32.6545 17.2327 32.6276 17.2398 32.5945L17.7232 30.3441C17.7727 30.1136 17.9764 29.9491 18.2121 29.9491H20.8852C21.1209 29.9491 21.3246 30.1137 21.3741 30.3441L21.8575 32.5945C21.8646 32.6276 21.8883 32.6545 21.9202 32.6658V32.6658C22.283 32.7935 22.6184 32.9476 22.9267 33.1279C23.2367 33.3092 23.5417 33.5173 23.8416 33.7524V33.7524C23.8671 33.7724 23.9008 33.7784 23.9316 33.7684L26.0732 33.074C26.2967 33.0016 26.5405 33.0945 26.6591 33.2973L27.9862 35.567C28.1074 35.7742 28.0642 36.0383 27.8834 36.1961L26.1766 37.686C26.1526 37.707 26.1404 37.7384 26.1439 37.77V37.77C26.1868 38.1554 26.2083 38.5407 26.2083 38.9259C26.2083 39.3112 26.1868 39.6965 26.1439 40.0818V40.0818C26.1404 40.1135 26.1526 40.1449 26.1766 40.1658L27.8834 41.6558C28.0642 41.8136 28.1074 42.0776 27.9862 42.2848L26.6591 44.5546ZM29.7939 29.1591C30.3209 29.6849 30.9574 29.9491 31.698 29.9491C32.4385 29.9491 33.075 29.6849 33.602 29.1591C34.1291 28.6333 34.394 27.9983 34.394 27.2593C34.394 26.5202 34.1291 25.8852 33.602 25.3594C33.075 24.8336 32.4385 24.5694 31.698 24.5694C30.9574 24.5694 30.3209 24.8336 29.7939 25.3594C29.2669 25.8852 29.002 26.5202 29.002 27.2593C29.002 27.9983 29.2669 28.6333 29.7939 29.1591ZM16.7188 41.7494C17.4952 42.524 18.4404 42.912 19.5487 42.912C20.6569 42.912 21.6021 42.524 22.3785 41.7494C23.155 40.9748 23.5441 40.0317 23.5441 38.9259C23.5441 37.8201 23.155 36.8771 22.3785 36.1025C21.6021 35.3279 20.6569 34.9398 19.5487 34.9398C18.4404 34.9398 17.4952 35.3279 16.7188 36.1025C15.9423 36.8771 15.5533 37.8201 15.5533 38.9259C15.5533 40.0317 15.9423 40.9748 16.7188 41.7494ZM29.8626 29.0903C30.3715 29.598 30.9833 29.8519 31.698 29.8519C32.4126 29.8519 33.0244 29.598 33.5333 29.0903C34.0423 28.5826 34.2967 27.9722 34.2967 27.2593C34.2967 26.5463 34.0423 25.936 33.5333 25.4282C33.0244 24.9205 32.4126 24.6667 31.698 24.6667C30.9833 24.6667 30.3715 24.9205 29.8626 25.4282C29.3536 25.936 29.0992 26.5463 29.0992 27.2593C29.0992 27.9722 29.3536 28.5826 29.8626 29.0903ZM16.7875 41.6806C17.5454 42.4367 18.4658 42.8148 19.5487 42.8148C20.6315 42.8148 21.5519 42.4367 22.3099 41.6806C23.0678 40.9244 23.4468 40.0062 23.4468 38.9259C23.4468 37.8457 23.0678 36.9275 22.3099 36.1713C21.5519 35.4151 20.6315 35.037 19.5487 35.037C18.4658 35.037 17.5454 35.4151 16.7875 36.1713C16.0295 36.9275 15.6505 37.8457 15.6505 38.9259C15.6505 40.0062 16.0295 40.9244 16.7875 41.6806Z" fill="white"/>
<path d="M9.61993 27.0037C9.54798 27.5025 10.1757 27.7824 10.4987 27.3955L13.7145 23.5426C13.9863 23.217 13.7548 22.7222 13.3307 22.7222H11.0784C10.7771 22.7222 10.5442 22.4577 10.5824 22.1589L10.9557 19.2365C11.0221 18.7173 10.3469 18.4581 10.0488 18.8884L7.2625 22.9097C7.03274 23.2413 7.27007 23.6944 7.67349 23.6944H9.51993C9.82448 23.6944 10.0583 23.9644 10.0148 24.2658L9.61993 27.0037ZM7.46539 32.4444C7.16112 32.4444 6.92739 32.175 6.97042 31.8737L7.77958 26.2096C7.82261 25.9084 7.58888 25.6389 7.28461 25.6389H3.95428C3.55095 25.6389 3.31361 25.1859 3.54319 24.8543L11.6009 13.2154C11.6943 13.0805 11.8479 13 12.012 13H13.1281C13.4288 13 13.6615 13.2636 13.6242 13.562L12.7925 20.2158C12.7552 20.5142 12.9879 20.7778 13.2886 20.7778H17.488C17.912 20.7778 18.1435 21.2722 17.8721 21.5979L8.98326 32.2645C8.88826 32.3785 8.74754 32.4444 8.59915 32.4444H7.46539Z" fill="white"/>
</svg>
