<svg width="40" height="60" viewBox="0 0 40 60" fill="none" xmlns="http://www.w3.org/2000/svg">
<path fill-rule="evenodd" clip-rule="evenodd" d="M11.3139 15.5498C11.5928 15.5498 11.8188 15.775 11.8188 16.0528V30.6981C11.8188 30.976 11.5928 31.2012 11.3139 31.2012H8.49147C8.21265 31.2012 7.98662 30.976 7.98662 30.6981V16.0528C7.98662 15.775 8.21265 15.5498 8.49147 15.5498H11.3139Z" fill="white"/>
<path fill-rule="evenodd" clip-rule="evenodd" d="M9.54126 18.6853C9.73937 18.4831 10.0658 18.4831 10.2639 18.6853L13.9347 22.4334C14.1328 22.6357 14.4592 22.6357 14.6573 22.4334L16.6616 20.3869C16.853 20.1915 16.853 19.8796 16.6616 19.6841L10.2639 13.1517C10.0658 12.9494 9.73937 12.9494 9.54126 13.1517L3.14355 19.6841C2.95215 19.8796 2.95215 20.1915 3.14355 20.3869L5.14788 22.4334C5.34598 22.6357 5.67238 22.6357 5.87048 22.4334L9.54126 18.6853Z" fill="white"/>
<path d="M32.7923 33.6528C33.0337 33.6528 33.2414 33.4825 33.2877 33.2464L33.5407 31.9582C33.5728 31.7944 33.6847 31.6581 33.8369 31.5886C34.0026 31.5129 34.1611 31.4347 34.3123 31.354C34.469 31.2704 34.6282 31.1736 34.7901 31.0634C34.9242 30.9722 35.0922 30.9428 35.247 30.9917L36.4697 31.3783C36.6959 31.4498 36.9416 31.3546 37.06 31.1497L37.9327 29.6384C38.0521 29.4317 38.0094 29.1699 37.8305 29.0114L36.8697 28.1604C36.7421 28.0474 36.6821 27.8779 36.6995 27.7086C36.7193 27.5162 36.7292 27.3238 36.7292 27.1314C36.7292 26.939 36.7193 26.7466 36.6995 26.5542C36.6821 26.3849 36.7421 26.2154 36.8697 26.1024L37.8305 25.2514C38.0094 25.0929 38.0521 24.8311 37.9327 24.6244L37.06 23.1131C36.9416 22.9082 36.6959 22.813 36.4697 22.8845L35.247 23.2711C35.0922 23.32 34.9242 23.2906 34.7901 23.1994C34.6282 23.0892 34.469 22.9924 34.3123 22.9088C34.1611 22.8281 34.0026 22.7499 33.8369 22.6742C33.6847 22.6047 33.5728 22.4684 33.5407 22.3046L33.2877 21.0164C33.2414 20.7803 33.0337 20.61 32.7923 20.61H31.0627C30.8212 20.61 30.6136 20.7803 30.5672 21.0164L30.3143 22.3046C30.2822 22.4684 30.1703 22.6047 30.0181 22.6742C29.8523 22.7499 29.6939 22.8281 29.5427 22.9088C29.386 22.9924 29.2267 23.0892 29.0649 23.1994C28.9308 23.2906 28.7627 23.32 28.608 23.2711L27.3853 22.8845C27.159 22.813 26.9134 22.9082 26.795 23.1131L25.9223 24.6244C25.8029 24.8311 25.8456 25.0929 26.0245 25.2514L26.9853 26.1024C27.1129 26.2154 27.1729 26.3849 27.1555 26.5542C27.1357 26.7466 27.1258 26.939 27.1258 27.1314C27.1258 27.3238 27.1357 27.5162 27.1555 27.7086C27.1729 27.8779 27.1129 28.0474 26.9853 28.1604L26.0245 29.0114C25.8456 29.1699 25.8029 29.4317 25.9223 29.6384L26.795 31.1497C26.9134 31.3546 27.159 31.4498 27.3853 31.3783L28.608 30.9917C28.7627 30.9428 28.9308 30.9722 29.0649 31.0634C29.2267 31.1736 29.386 31.2704 29.5427 31.354C29.6939 31.4347 29.8523 31.5129 30.0181 31.5886C30.1703 31.6581 30.2822 31.7944 30.3143 31.9582L30.5672 33.2464C30.6136 33.4825 30.8212 33.6528 31.0627 33.6528H32.7923ZM31.9275 29.74C31.2232 29.74 30.6204 29.4846 30.1189 28.9737C29.6174 28.4629 29.3666 27.8488 29.3666 27.1314C29.3666 26.414 29.6174 25.7999 30.1189 25.2891C30.6204 24.7782 31.2232 24.5228 31.9275 24.5228C32.6317 24.5228 33.2346 24.7782 33.7361 25.2891C34.2376 25.7999 34.4884 26.414 34.4884 27.1314C34.4884 27.8488 34.2376 28.4629 33.7361 28.9737C33.2346 29.4846 32.6317 29.74 31.9275 29.74ZM21.338 48C21.5769 48 21.7831 47.8331 21.8321 47.6001L22.2664 45.5357C22.3023 45.365 22.4251 45.2264 22.5869 45.1599C22.8506 45.0514 23.0992 44.9276 23.3325 44.7882C23.5673 44.648 23.7991 44.4921 24.0278 44.3206C24.1648 44.2179 24.3431 44.1849 24.5058 44.2387L26.4131 44.8702C26.6414 44.9458 26.8915 44.8503 27.0108 44.6421L28.3961 42.2231C28.514 42.017 28.4716 41.7569 28.2941 41.5987L26.743 40.2162C26.6216 40.108 26.5608 39.9482 26.5746 39.7866C26.6006 39.481 26.6136 39.1755 26.6136 38.87C26.6136 38.5645 26.6006 38.259 26.5746 37.9534C26.5608 37.7918 26.6216 37.632 26.743 37.5238L28.2941 36.1412C28.4716 35.9831 28.514 35.7229 28.3961 35.5169L27.0108 33.0979C26.8915 32.8897 26.6414 32.7942 26.4131 32.8698L24.5058 33.5012C24.3431 33.5551 24.1648 33.5221 24.0278 33.4194C23.7991 33.2479 23.5673 33.092 23.3325 32.9518C23.0992 32.8124 22.8506 32.6886 22.5869 32.5801C22.4251 32.5136 22.3023 32.375 22.2664 32.2042L21.8321 30.1398C21.7831 29.9068 21.5769 29.74 21.338 29.74H18.5727C18.3338 29.74 18.1276 29.9068 18.0786 30.1398L17.6443 32.2042C17.6084 32.375 17.4856 32.5136 17.3237 32.5801C17.06 32.6886 16.8115 32.8124 16.5782 32.9518C16.3433 33.092 16.1116 33.2479 15.8829 33.4194C15.7459 33.5221 15.5676 33.5551 15.4049 33.5012L13.4976 32.8698C13.2693 32.7942 13.0192 32.8897 12.8999 33.0979L11.5146 35.5169C11.3966 35.7229 11.4391 35.9831 11.6165 36.1412L13.1677 37.5238C13.2891 37.632 13.3498 37.7918 13.3361 37.9534C13.31 38.259 13.297 38.5645 13.297 38.87C13.297 39.1755 13.31 39.481 13.3361 39.7866C13.3498 39.9482 13.2891 40.108 13.1677 40.2162L11.6165 41.5987C11.4391 41.7569 11.3966 42.017 11.5146 42.2231L12.8999 44.6421C13.0192 44.8503 13.2693 44.9458 13.4976 44.8702L15.4049 44.2387C15.5676 44.1849 15.7459 44.2179 15.8829 44.3206C16.1116 44.4921 16.3433 44.648 16.5782 44.7882C16.8115 44.9276 17.06 45.0514 17.3237 45.1599C17.4856 45.2264 17.6084 45.365 17.6443 45.5357L18.0786 47.6001C18.1276 47.8331 18.3338 48 18.5727 48H21.338ZM19.9553 42.7829C18.8883 42.7829 17.9813 42.4024 17.2344 41.6416C16.4875 40.8808 16.114 39.9569 16.114 38.87C16.114 37.7831 16.4875 36.8592 17.2344 36.0984C17.9813 35.3375 18.8883 34.9571 19.9553 34.9571C21.0224 34.9571 21.9294 35.3375 22.6763 36.0984C23.4232 36.8592 23.7967 37.7831 23.7967 38.87C23.7967 39.9569 23.4232 40.8808 22.6763 41.6416C21.9294 42.4024 21.0224 42.7829 19.9553 42.7829Z" fill="white"/>
<path fill-rule="evenodd" clip-rule="evenodd" d="M33.8369 31.5886C33.6847 31.6581 33.5728 31.7944 33.5407 31.9582L33.2877 33.2464C33.2414 33.4825 33.0337 33.6528 32.7923 33.6528H31.0627C30.8212 33.6528 30.6136 33.4825 30.5672 33.2464L30.3143 31.9582C30.2822 31.7944 30.1703 31.6581 30.0181 31.5886C29.8523 31.5129 29.6939 31.4347 29.5427 31.354C29.386 31.2704 29.2267 31.1736 29.0649 31.0634C28.9308 30.9722 28.7627 30.9428 28.608 30.9917L27.3853 31.3783C27.159 31.4498 26.9134 31.3546 26.795 31.1497L25.9223 29.6384C25.8029 29.4317 25.8456 29.1699 26.0245 29.0114L26.9853 28.1604C27.1129 28.0474 27.1729 27.8779 27.1555 27.7086C27.1357 27.5162 27.1258 27.3238 27.1258 27.1314C27.1258 26.939 27.1357 26.7466 27.1555 26.5542C27.1729 26.3849 27.1129 26.2154 26.9853 26.1024L26.0245 25.2514C25.8456 25.0929 25.8029 24.8311 25.9223 24.6244L26.795 23.1131C26.9134 22.9082 27.159 22.813 27.3853 22.8845L28.608 23.2711C28.7627 23.32 28.9308 23.2906 29.0649 23.1994C29.2267 23.0892 29.386 22.9924 29.5427 22.9088C29.6939 22.8281 29.8523 22.7499 30.0181 22.6742C30.1703 22.6047 30.2822 22.4684 30.3143 22.3046L30.5672 21.0164C30.6136 20.7803 30.8212 20.61 31.0627 20.61H32.7923C33.0337 20.61 33.2414 20.7803 33.2877 21.0164L33.5407 22.3046C33.5728 22.4684 33.6847 22.6047 33.8369 22.6742C34.0026 22.7499 34.1611 22.8281 34.3123 22.9088C34.469 22.9924 34.6282 23.0892 34.7901 23.1994C34.9242 23.2906 35.0922 23.32 35.247 23.2711L36.4697 22.8845C36.6959 22.813 36.9416 22.9082 37.06 23.1131L37.9327 24.6244C38.0521 24.8311 38.0094 25.0929 37.8305 25.2514L36.8697 26.1024C36.7421 26.2154 36.6821 26.3849 36.6995 26.5542C36.7193 26.7466 36.7292 26.939 36.7292 27.1314C36.7292 27.3238 36.7193 27.5162 36.6995 27.7086C36.6821 27.8779 36.7421 28.0474 36.8697 28.1604L37.8305 29.0114C38.0094 29.1699 38.0521 29.4317 37.9327 29.6384L37.06 31.1497C36.9416 31.3546 36.6959 31.4498 36.4697 31.3783L35.247 30.9917C35.0922 30.9428 34.9242 30.9722 34.7901 31.0634C34.6282 31.1736 34.469 31.2704 34.3123 31.354C34.1611 31.4347 34.0026 31.5129 33.8369 31.5886ZM37.0159 31.0333C36.8975 31.2383 36.6519 31.3335 36.4257 31.2619L35.0292 30.8205C35.0003 30.8113 34.9687 30.8166 34.9443 30.8347C34.7128 31.0062 34.4873 31.1503 34.2679 31.2673C34.0466 31.3855 33.809 31.4984 33.5553 31.6061C33.5258 31.6186 33.5045 31.6448 33.4983 31.6762L33.2092 33.1485C33.1629 33.3847 32.9552 33.555 32.7138 33.555H31.1412C30.8997 33.555 30.6921 33.3847 30.6457 33.1485L30.3566 31.6762C30.3505 31.6448 30.3292 31.6186 30.2997 31.6061C30.0459 31.4984 29.8084 31.3855 29.587 31.2673C29.3676 31.1503 29.1422 31.0062 28.9107 30.8347C28.8863 30.8166 28.8547 30.8113 28.8258 30.8205L27.4293 31.2619C27.2031 31.3335 26.9574 31.2383 26.8391 31.0333L26.0453 29.6589C25.926 29.4522 25.9686 29.1904 26.1475 29.0319L27.2521 28.0535C27.2774 28.0312 27.2896 27.9976 27.2845 27.9643C27.2426 27.6866 27.2216 27.4089 27.2216 27.1314C27.2216 26.8539 27.2426 26.5762 27.2845 26.2985C27.2896 26.2652 27.2774 26.2316 27.2521 26.2092L26.1475 25.2309C25.9686 25.0724 25.926 24.8106 26.0453 24.6039L26.8391 23.2295C26.9574 23.0245 27.2031 22.9293 27.4293 23.0008L28.8258 23.4423C28.8547 23.4515 28.8863 23.4462 28.9107 23.4281C29.1422 23.2566 29.3676 23.1125 29.587 22.9955C29.8084 22.8773 30.0459 22.7644 30.2997 22.6567C30.3292 22.6442 30.3505 22.618 30.3566 22.5866L30.6457 21.1143C30.6921 20.8781 30.8997 20.7078 31.1412 20.7078H32.7138C32.9552 20.7078 33.1629 20.8781 33.2092 21.1143L33.4983 22.5866C33.5045 22.618 33.5258 22.6442 33.5553 22.6567C33.809 22.7644 34.0466 22.8773 34.2679 22.9955C34.4873 23.1125 34.7128 23.2566 34.9443 23.4281C34.9687 23.4462 35.0003 23.4515 35.0292 23.4423L36.4257 23.0008C36.6519 22.9293 36.8975 23.0245 37.0159 23.2295L37.8096 24.6039C37.929 24.8106 37.8863 25.0724 37.7075 25.2309L36.6029 26.2092C36.5776 26.2316 36.5654 26.2652 36.5704 26.2985C36.6124 26.5762 36.6334 26.8539 36.6334 27.1314C36.6334 27.4089 36.6124 27.6866 36.5704 27.9643C36.5654 27.9976 36.5776 28.0312 36.6029 28.0535L37.7075 29.0319C37.8863 29.1904 37.929 29.4522 37.8096 29.6589L37.0159 31.0333ZM22.5869 45.1599C22.4251 45.2264 22.3023 45.365 22.2664 45.5357L21.8321 47.6001C21.7831 47.8331 21.5769 48 21.338 48H18.5727C18.3338 48 18.1276 47.8331 18.0786 47.6001L17.6443 45.5357C17.6084 45.365 17.4856 45.2264 17.3237 45.1599C17.06 45.0514 16.8115 44.9276 16.5782 44.7882C16.3433 44.648 16.1116 44.4921 15.8829 44.3206C15.7459 44.2179 15.5676 44.1849 15.4049 44.2387L13.4976 44.8702C13.2693 44.9458 13.0192 44.8503 12.8999 44.6421L11.5146 42.2231C11.3966 42.017 11.4391 41.7569 11.6165 41.5987L13.1677 40.2162C13.2891 40.108 13.3498 39.9482 13.3361 39.7866C13.31 39.481 13.297 39.1755 13.297 38.87C13.297 38.5645 13.31 38.259 13.3361 37.9534C13.3498 37.7918 13.2891 37.632 13.1677 37.5238L11.6165 36.1412C11.4391 35.9831 11.3966 35.7229 11.5146 35.5169L12.8999 33.0979C13.0192 32.8897 13.2693 32.7942 13.4976 32.8698L15.4049 33.5012C15.5676 33.5551 15.7459 33.5221 15.8829 33.4194C16.1116 33.2479 16.3433 33.092 16.5782 32.9518C16.8115 32.8124 17.06 32.6886 17.3237 32.5801C17.4856 32.5136 17.6084 32.375 17.6443 32.2042L18.0786 30.1398C18.1276 29.9068 18.3338 29.74 18.5727 29.74H21.338C21.5769 29.74 21.7831 29.9068 21.8321 30.1398L22.2664 32.2042C22.3023 32.375 22.4251 32.5136 22.5869 32.5801C22.8506 32.6886 23.0992 32.8124 23.3325 32.9518C23.5673 33.092 23.7991 33.2479 24.0278 33.4194C24.1648 33.5221 24.3431 33.5551 24.5058 33.5012L26.4131 32.8698C26.6414 32.7942 26.8915 32.8897 27.0108 33.0979L28.3961 35.5169C28.514 35.7229 28.4716 35.9831 28.2941 36.1412L26.743 37.5238C26.6216 37.632 26.5608 37.7918 26.5746 37.9534C26.6006 38.259 26.6136 38.5645 26.6136 38.87C26.6136 39.1755 26.6006 39.481 26.5746 39.7866C26.5608 39.9482 26.6216 40.108 26.743 40.2162L28.2941 41.5987C28.4716 41.7569 28.514 42.017 28.3961 42.2231L27.0108 44.6421C26.8915 44.8503 26.6414 44.9458 26.4131 44.8702L24.5058 44.2387C24.3431 44.1849 24.1648 44.2179 24.0278 44.3206C23.7991 44.4921 23.5673 44.648 23.3325 44.7882C23.0992 44.9276 22.8506 45.0514 22.5869 45.1599ZM26.967 44.5248C26.8477 44.733 26.5976 44.8284 26.3693 44.7529L24.2747 44.0594C24.2443 44.0493 24.2107 44.0554 24.1857 44.0754C23.8902 44.3119 23.5896 44.5214 23.2841 44.7038C22.9803 44.8852 22.6498 45.0402 22.2923 45.1687C22.2609 45.18 22.2376 45.2068 22.2307 45.2394L21.7547 47.5023C21.7057 47.7353 21.4995 47.9022 21.2606 47.9022H18.6501C18.4112 47.9022 18.205 47.7353 18.156 47.5023L17.6799 45.2394C17.6731 45.2068 17.6498 45.18 17.6183 45.1687C17.2609 45.0402 16.9303 44.8852 16.6265 44.7038C16.321 44.5214 16.0205 44.3119 15.725 44.0754C15.6999 44.0554 15.6664 44.0493 15.636 44.0594L13.5414 44.7529C13.313 44.8284 13.0629 44.733 12.9437 44.5248L11.6373 42.2435C11.5193 42.0375 11.5618 41.7774 11.7392 41.6192L13.4235 40.118C13.4476 40.0966 13.4598 40.065 13.4563 40.033C13.414 39.6453 13.3928 39.2576 13.3928 38.87C13.3928 38.4823 13.414 38.0947 13.4563 37.707C13.4598 37.675 13.4476 37.6434 13.4235 37.622L11.7392 36.1208C11.5618 35.9626 11.5193 35.7025 11.6373 35.4964L12.9437 33.2152C13.0629 33.007 13.313 32.9116 13.5414 32.9871L15.636 33.6806C15.6664 33.6907 15.6999 33.6846 15.725 33.6646C16.0205 33.4281 16.321 33.2186 16.6265 33.0362C16.9303 32.8548 17.2609 32.6998 17.6183 32.5712C17.6498 32.5599 17.6731 32.5332 17.6799 32.5006L18.156 30.2377C18.205 30.0047 18.4112 29.8378 18.6501 29.8378H21.2606C21.4995 29.8378 21.7057 30.0047 21.7547 30.2377L22.2307 32.5006C22.2376 32.5332 22.2609 32.5599 22.2923 32.5712C22.6498 32.6998 22.9803 32.8548 23.2841 33.0362C23.5896 33.2186 23.8902 33.4281 24.1857 33.6646C24.2107 33.6846 24.2443 33.6907 24.2747 33.6806L26.3693 32.9871C26.5976 32.9116 26.8477 33.007 26.967 33.2152L28.2734 35.4964C28.3913 35.7025 28.3489 35.9626 28.1714 36.1208L26.4871 37.622C26.4631 37.6434 26.4509 37.675 26.4544 37.707C26.4967 38.0947 26.5178 38.4823 26.5178 38.87C26.5178 39.2576 26.4967 39.6453 26.4544 40.033C26.4509 40.065 26.4631 40.0966 26.4871 40.118L28.1714 41.6192C28.3489 41.7774 28.3913 42.0375 28.2734 42.2435L26.967 44.5248ZM30.0512 29.043C30.5705 29.572 31.1977 29.8378 31.9275 29.8378C32.6573 29.8378 33.2844 29.572 33.8038 29.043C34.3231 28.5139 34.5842 27.875 34.5842 27.1314C34.5842 26.3878 34.3231 25.7489 33.8038 25.2198C33.2844 24.6908 32.6573 24.425 31.9275 24.425C31.1977 24.425 30.5705 24.6908 30.0512 25.2198C29.5318 25.7489 29.2708 26.3878 29.2708 27.1314C29.2708 27.875 29.5318 28.5139 30.0512 29.043ZM17.1667 41.7109C17.9318 42.4902 18.8633 42.8807 19.9553 42.8807C21.0474 42.8807 21.9788 42.4902 22.744 41.7109C23.5091 40.9315 23.8925 39.9826 23.8925 38.87C23.8925 37.7574 23.5091 36.8085 22.744 36.0291C21.9788 35.2498 21.0474 34.8593 19.9553 34.8593C18.8633 34.8593 17.9318 35.2498 17.1667 36.0291C16.4016 36.8085 16.0182 37.7574 16.0182 38.87C16.0182 39.9826 16.4016 40.9315 17.1667 41.7109ZM30.1189 28.9737C30.6204 29.4846 31.2232 29.74 31.9275 29.74C32.6317 29.74 33.2346 29.4846 33.7361 28.9737C34.2376 28.4629 34.4884 27.8488 34.4884 27.1314C34.4884 26.414 34.2376 25.7999 33.7361 25.2891C33.2346 24.7782 32.6317 24.5228 31.9275 24.5228C31.2232 24.5228 30.6204 24.7782 30.1189 25.2891C29.6174 25.7999 29.3666 26.414 29.3666 27.1314C29.3666 27.8488 29.6174 28.4629 30.1189 28.9737ZM17.2344 41.6416C17.9813 42.4024 18.8883 42.7829 19.9553 42.7829C21.0224 42.7829 21.9294 42.4024 22.6763 41.6416C23.4232 40.8808 23.7967 39.9569 23.7967 38.87C23.7967 37.7831 23.4232 36.8592 22.6763 36.0984C21.9294 35.3375 21.0224 34.9571 19.9553 34.9571C18.8883 34.9571 17.9813 35.3375 17.2344 36.0984C16.4875 36.8592 16.114 37.7831 16.114 38.87C16.114 39.9569 16.4875 40.8808 17.2344 41.6416Z" fill="white"/>
</svg>
