<svg width="40" height="60" viewBox="0 0 40 60" fill="none" xmlns="http://www.w3.org/2000/svg">
<path fill-rule="evenodd" clip-rule="evenodd" d="M12.2105 13C13.2279 13 14.0526 13.8247 14.0526 14.8421C14.0526 17.2833 12.8506 19.5703 11.2105 21.2105C9.57035 22.8506 7.28332 24.0526 4.84211 24.0526C3.82474 24.0526 3 23.2279 3 22.2105C3 21.1932 3.82474 20.3684 4.84211 20.3684C6.0851 20.3684 7.48228 19.7284 8.60533 18.6053C9.72838 17.4823 10.3684 16.0851 10.3684 14.8421C10.3684 13.8247 11.1932 13 12.2105 13ZM19.5789 13C20.5963 13 21.4211 13.8247 21.4211 14.8421C21.4211 19.1254 19.2979 23.2546 16.2762 26.2762C13.2546 29.2979 9.12543 31.4211 4.84211 31.4211C3.82474 31.4211 3 30.5963 3 29.5789C3 28.5616 3.82474 27.7368 4.84211 27.7368C7.9272 27.7368 11.1665 26.1757 13.6711 23.6711C16.1757 21.1665 17.7368 17.9272 17.7368 14.8421C17.7368 13.8247 18.5616 13 19.5789 13Z" fill="white"/>
<path d="M32.8509 34.4912C33.0892 34.4912 33.2943 34.3231 33.3412 34.0895L33.5776 32.9103C33.6103 32.747 33.7226 32.6117 33.8745 32.5435C34.0305 32.4735 34.1798 32.4013 34.3224 32.3268C34.472 32.2486 34.6241 32.158 34.7787 32.0552C34.9098 31.9679 35.0726 31.9397 35.223 31.9863L36.3913 32.348C36.6127 32.4165 36.8521 32.3239 36.9698 32.1243L37.7885 30.7359C37.911 30.5281 37.8677 30.2624 37.6854 30.1043L36.793 29.3301C36.6631 29.2175 36.602 29.0462 36.6193 28.8752C36.637 28.7004 36.6459 28.5257 36.6459 28.3509C36.6459 28.1761 36.637 28.0013 36.6193 27.8265C36.602 27.6555 36.6631 27.4843 36.793 27.3717L37.6854 26.5975C37.8677 26.4394 37.911 26.1737 37.7885 25.9658L36.9698 24.5775C36.8521 24.3778 36.6127 24.2852 36.3913 24.3538L35.223 24.7155C35.0726 24.7621 34.9098 24.7338 34.7787 24.6466C34.6241 24.5437 34.472 24.4532 34.3224 24.375C34.1798 24.3005 34.0305 24.2282 33.8745 24.1582C33.7226 24.0901 33.6103 23.9547 33.5776 23.7915L33.3412 22.6122C33.2943 22.3786 33.0892 22.2105 32.8509 22.2105H31.2084C30.9701 22.2105 30.7649 22.3786 30.7181 22.6122L30.4817 23.7915C30.449 23.9547 30.3367 24.0901 30.1848 24.1582C30.0288 24.2282 29.8795 24.3005 29.7369 24.375C29.5873 24.4532 29.4352 24.5437 29.2806 24.6466C29.1495 24.7338 28.9867 24.7621 28.8362 24.7155L27.668 24.3538C27.4466 24.2852 27.2072 24.3778 27.0894 24.5775L26.2708 25.9658C26.1483 26.1737 26.1916 26.4394 26.3739 26.5975L27.2663 27.3717C27.3962 27.4843 27.4573 27.6555 27.4399 27.8265C27.4222 28.0013 27.4134 28.1761 27.4134 28.3509C27.4134 28.5257 27.4222 28.7004 27.4399 28.8752C27.4573 29.0462 27.3962 29.2175 27.2663 29.3301L26.3739 30.1043C26.1916 30.2624 26.1483 30.5281 26.2708 30.7359L27.0894 32.1243C27.2072 32.3239 27.4466 32.4165 27.668 32.348L28.8362 31.9863C28.9867 31.9397 29.1495 31.9679 29.2806 32.0552C29.4352 32.158 29.5873 32.2486 29.7369 32.3268C29.8795 32.4013 30.0288 32.4735 30.1848 32.5435C30.3367 32.6117 30.449 32.747 30.4817 32.9103L30.7181 34.0895C30.7649 34.3231 30.9701 34.4912 31.2084 34.4912H32.8509ZM32.0296 30.807C31.3526 30.807 30.773 30.5665 30.2909 30.0855C29.8087 29.6045 29.5676 29.0263 29.5676 28.3509C29.5676 27.6754 29.8087 27.0972 30.2909 26.6162C30.773 26.1352 31.3526 25.8947 32.0296 25.8947C32.7067 25.8947 33.2863 26.1352 33.7684 26.6162C34.2506 27.0972 34.4916 27.6754 34.4916 28.3509C34.4916 29.0263 34.2506 29.6045 33.7684 30.0855C33.2863 30.5665 32.7067 30.807 32.0296 30.807ZM21.8392 48C22.0749 48 22.2785 47.8354 22.328 47.605L22.7384 45.6947C22.7749 45.5247 22.8977 45.3874 23.0589 45.3221C23.309 45.2209 23.5449 45.1055 23.7666 44.9759C23.9912 44.8445 24.2128 44.6986 24.4316 44.5381C24.5658 44.4396 24.7385 44.408 24.8968 44.4593L26.7229 45.0513C26.9464 45.1238 27.1902 45.0309 27.3087 44.8281L28.6203 42.5851C28.7414 42.3779 28.6982 42.1139 28.5174 41.9561L27.0565 40.6808C26.9331 40.573 26.8711 40.4117 26.885 40.2484C26.909 39.9668 26.921 39.6852 26.921 39.4035C26.921 39.1219 26.909 38.8402 26.885 38.5586C26.8711 38.3953 26.9331 38.234 27.0565 38.1262L28.5174 36.8509C28.6982 36.6931 28.7414 36.4291 28.6203 36.2219L27.3087 33.9789C27.1902 33.7761 26.9464 33.6832 26.7229 33.7557L24.8968 34.3477C24.7385 34.3991 24.5658 34.3674 24.4316 34.269C24.2128 34.1084 23.9912 33.9625 23.7666 33.8311C23.5449 33.7015 23.309 33.5861 23.0589 33.4849C22.8977 33.4197 22.7749 33.2823 22.7384 33.1123L22.328 31.202C22.2785 30.9716 22.0749 30.807 21.8392 30.807H19.2004C18.9647 30.807 18.761 30.9716 18.7115 31.202L18.3012 33.1123C18.2647 33.2823 18.1418 33.4197 17.9806 33.4849C17.7305 33.5861 17.4947 33.7015 17.273 33.8311C17.0484 33.9625 16.8267 34.1084 16.608 34.269C16.4738 34.3674 16.301 34.3991 16.1427 34.3477L14.3167 33.7557C14.0932 33.6832 13.8494 33.7761 13.7308 33.9789L12.4193 36.2219C12.2982 36.4291 12.3413 36.6931 12.5221 36.8509L13.9831 38.1262C14.1065 38.234 14.1684 38.3953 14.1545 38.5586C14.1306 38.8402 14.1186 39.1219 14.1186 39.4035C14.1186 39.6852 14.1306 39.9668 14.1545 40.2484C14.1684 40.4117 14.1065 40.573 13.9831 40.6808L12.5221 41.9561C12.3413 42.1139 12.2982 42.3779 12.4193 42.5851L13.7308 44.8281C13.8494 45.0309 14.0932 45.1238 14.3167 45.0513L16.1427 44.4593C16.301 44.408 16.4738 44.4396 16.608 44.5381C16.8267 44.6986 17.0484 44.8445 17.273 44.9759C17.4947 45.1055 17.7305 45.2209 17.9806 45.3221C18.1418 45.3874 18.2647 45.5247 18.3012 45.6947L18.7115 47.605C18.761 47.8354 18.9647 48 19.2004 48H21.8392ZM20.5198 43.0877C19.494 43.0877 18.622 42.7295 17.9039 42.0132C17.1858 41.2968 16.8268 40.4269 16.8268 39.4035C16.8268 38.3801 17.1858 37.5102 17.9039 36.7939C18.622 36.0775 19.494 35.7193 20.5198 35.7193C21.5456 35.7193 22.4176 36.0775 23.1357 36.7939C23.8537 37.5102 24.2128 38.3801 24.2128 39.4035C24.2128 40.4269 23.8537 41.2968 23.1357 42.0132C22.4176 42.7295 21.5456 43.0877 20.5198 43.0877Z" fill="white"/>
</svg>
