<svg width="40" height="60" viewBox="0 0 40 60" fill="none" xmlns="http://www.w3.org/2000/svg">
<path d="M32.1822 32.7422C32.4213 32.7422 32.627 32.5729 32.6729 32.3382L32.9234 31.0579C32.9552 30.8952 33.0661 30.7597 33.2168 30.6906C33.3809 30.6154 33.5379 30.5377 33.6876 30.4575C33.8428 30.3744 34.0005 30.2781 34.1609 30.1687C34.2936 30.078 34.4601 30.0488 34.6133 30.0974L35.8243 30.4816C36.0484 30.5526 36.2917 30.4581 36.4089 30.2544L37.2732 28.7523C37.3915 28.5469 37.3492 28.2867 37.1721 28.1292L36.2205 27.2834C36.0941 27.1711 36.0346 27.0026 36.0519 26.8344C36.0715 26.6432 36.0813 26.452 36.0813 26.2607C36.0813 26.0695 36.0715 25.8783 36.0519 25.687C36.0346 25.5188 36.0941 25.3504 36.2205 25.238L37.1721 24.3922C37.3492 24.2347 37.3915 23.9745 37.2732 23.7691L36.4089 22.2671C36.2917 22.0634 36.0484 21.9688 35.8243 22.0399L34.6133 22.424C34.4601 22.4727 34.2936 22.4434 34.1609 22.3528C34.0005 22.2433 33.8428 22.147 33.6876 22.064C33.5379 21.9838 33.3809 21.9061 33.2168 21.8308C33.0661 21.7617 32.9552 21.6262 32.9234 21.4635L32.6729 20.1832C32.627 19.9486 32.4213 19.7792 32.1822 19.7792H30.4692C30.2301 19.7792 30.0244 19.9486 29.9785 20.1832L29.728 21.4635C29.6962 21.6262 29.5854 21.7617 29.4347 21.8308C29.2705 21.9061 29.1135 21.9838 28.9638 22.064C28.8087 22.147 28.6509 22.2433 28.4906 22.3528C28.3578 22.4434 28.1914 22.4727 28.0381 22.424L26.8271 22.0399C26.6031 21.9688 26.3598 22.0634 26.2426 22.2671L25.3782 23.7691C25.26 23.9745 25.3023 24.2347 25.4794 24.3922L26.431 25.238C26.5574 25.3504 26.6168 25.5188 26.5996 25.687C26.58 25.8783 26.5702 26.0695 26.5702 26.2607C26.5702 26.452 26.58 26.6432 26.5996 26.8344C26.6168 27.0026 26.5574 27.1711 26.431 27.2834L25.4794 28.1292C25.3023 28.2867 25.26 28.5469 25.3782 28.7523L26.2426 30.2544C26.3598 30.4581 26.6031 30.5526 26.8271 30.4816L28.0381 30.0974C28.1914 30.0488 28.3578 30.078 28.4906 30.1687C28.6509 30.2781 28.8087 30.3744 28.9638 30.4575C29.1135 30.5377 29.2705 30.6154 29.4347 30.6906C29.5854 30.7597 29.6962 30.8952 29.728 31.0579L29.9785 32.3382C30.0244 32.5729 30.2301 32.7422 30.4692 32.7422H32.1822ZM31.3257 28.8533C30.6282 28.8533 30.0312 28.5995 29.5345 28.0917C29.0378 27.584 28.7894 26.9737 28.7894 26.2607C28.7894 25.5478 29.0378 24.9374 29.5345 24.4297C30.0312 23.922 30.6282 23.6681 31.3257 23.6681C32.0232 23.6681 32.6203 23.922 33.117 24.4297C33.6137 24.9374 33.862 25.5478 33.862 26.2607C33.862 26.9737 33.6137 27.584 33.117 28.0917C32.6203 28.5995 32.0232 28.8533 31.3257 28.8533ZM20.8379 47.0014C21.0745 47.0014 21.2788 46.8356 21.3273 46.604L21.7574 44.5523C21.793 44.3826 21.9146 44.2449 22.0749 44.1787C22.3361 44.0709 22.5822 43.9478 22.8133 43.8093C23.0459 43.67 23.2754 43.515 23.5019 43.3446C23.6376 43.2425 23.8142 43.2097 23.9753 43.2632L25.8643 43.8908C26.0904 43.9659 26.3381 43.8711 26.4562 43.6641L27.8282 41.2599C27.9451 41.0551 27.903 40.7966 27.7273 40.6394L26.191 39.2653C26.0708 39.1578 26.0106 38.999 26.0243 38.8383C26.05 38.5347 26.0629 38.231 26.0629 37.9274C26.0629 37.6237 26.05 37.3201 26.0243 37.0164C26.0106 36.8558 26.0708 36.6969 26.191 36.5894L27.7273 35.2154C27.903 35.0582 27.9451 34.7996 27.8282 34.5949L26.4562 32.1906C26.3381 31.9837 26.0904 31.8889 25.8643 31.964L23.9753 32.5915C23.8142 32.6451 23.6376 32.6123 23.5019 32.5102C23.2754 32.3397 23.0459 32.1848 22.8133 32.0454C22.5822 31.907 22.3361 31.7838 22.0749 31.6761C21.9146 31.6099 21.793 31.4722 21.7574 31.3025L21.3273 29.2507C21.2788 29.0192 21.0745 28.8533 20.8379 28.8533H18.0992C17.8626 28.8533 17.6584 29.0192 17.6099 29.2507L17.1798 31.3025C17.1442 31.4722 17.0226 31.6099 16.8623 31.676C16.6011 31.7838 16.355 31.907 16.1239 32.0454C15.8913 32.1848 15.6617 32.3397 15.4352 32.5102C15.2996 32.6123 15.123 32.6451 14.9619 32.5915L13.0728 31.964C12.8467 31.8889 12.599 31.9837 12.4809 32.1906L11.109 34.5949C10.9921 34.7996 11.0342 35.0582 11.2099 35.2154L12.7461 36.5894C12.8663 36.6969 12.9265 36.8558 12.9129 37.0164C12.8871 37.3201 12.8742 37.6237 12.8742 37.9274C12.8742 38.231 12.8871 38.5347 12.9129 38.8383C12.9265 38.999 12.8663 39.1578 12.7461 39.2653L11.2099 40.6394C11.0342 40.7966 10.9921 41.0552 11.109 41.2599L12.4809 43.6641C12.599 43.8711 12.8467 43.9659 13.0728 43.8908L14.9619 43.2632C15.123 43.2097 15.2996 43.2425 15.4352 43.3446C15.6617 43.515 15.8913 43.67 16.1239 43.8093C16.355 43.9478 16.6011 44.0709 16.8623 44.1787C17.0226 44.2449 17.1442 44.3826 17.1798 44.5523L17.6099 46.604C17.6584 46.8356 17.8626 47.0014 18.0992 47.0014H20.8379ZM19.4686 41.8163C18.4118 41.8163 17.5135 41.4382 16.7738 40.682C16.034 39.9258 15.6642 39.0076 15.6642 37.9274C15.6642 36.8471 16.034 35.9289 16.7738 35.1728C17.5135 34.4166 18.4118 34.0385 19.4686 34.0385C20.5254 34.0385 21.4236 34.4166 22.1634 35.1728C22.9031 35.9289 23.273 36.8471 23.273 37.9274C23.273 39.0076 22.9031 39.9258 22.1634 40.682C21.4236 41.4382 20.5254 41.8163 19.4686 41.8163Z" fill="white"/>
<path fill-rule="evenodd" clip-rule="evenodd" d="M33.2168 30.6906C33.0661 30.7597 32.9552 30.8952 32.9234 31.0579L32.6729 32.3382C32.627 32.5729 32.4213 32.7422 32.1822 32.7422H30.4692C30.2301 32.7422 30.0244 32.5729 29.9785 32.3382L29.728 31.0579C29.6962 30.8952 29.5854 30.7597 29.4347 30.6906C29.2705 30.6154 29.1135 30.5377 28.9638 30.4575C28.8087 30.3744 28.6509 30.2781 28.4906 30.1687C28.3578 30.078 28.1914 30.0488 28.0381 30.0974L26.8271 30.4816C26.6031 30.5526 26.3598 30.4581 26.2426 30.2544L25.3782 28.7523C25.26 28.5469 25.3023 28.2867 25.4794 28.1292L26.431 27.2834C26.5574 27.1711 26.6168 27.0026 26.5996 26.8344C26.58 26.6432 26.5702 26.452 26.5702 26.2607C26.5702 26.0695 26.58 25.8783 26.5996 25.687C26.6168 25.5188 26.5574 25.3504 26.431 25.238L25.4794 24.3922C25.3023 24.2347 25.26 23.9745 25.3782 23.7691L26.2426 22.2671C26.3598 22.0634 26.6031 21.9688 26.8271 22.0399L28.0381 22.424C28.1914 22.4727 28.3578 22.4434 28.4906 22.3528C28.6509 22.2433 28.8087 22.147 28.9638 22.064C29.1135 21.9838 29.2705 21.9061 29.4347 21.8308C29.5854 21.7617 29.6962 21.6262 29.728 21.4635L29.9785 20.1832C30.0244 19.9486 30.2301 19.7792 30.4692 19.7792H32.1822C32.4213 19.7792 32.627 19.9486 32.6729 20.1832L32.9234 21.4635C32.9552 21.6262 33.0661 21.7617 33.2168 21.8308C33.3809 21.9061 33.5379 21.9838 33.6876 22.064C33.8428 22.147 34.0005 22.2433 34.1609 22.3528C34.2936 22.4434 34.4601 22.4727 34.6133 22.424L35.8243 22.0399C36.0484 21.9688 36.2917 22.0634 36.4089 22.2671L37.2732 23.7691C37.3915 23.9745 37.3492 24.2347 37.1721 24.3922L36.2205 25.238C36.0941 25.3504 36.0346 25.5188 36.0519 25.687C36.0715 25.8783 36.0813 26.0695 36.0813 26.2607C36.0813 26.452 36.0715 26.6432 36.0519 26.8344C36.0346 27.0026 36.0941 27.1711 36.2205 27.2834L37.1721 28.1292C37.3492 28.2867 37.3915 28.5469 37.2732 28.7523L36.4089 30.2544C36.2917 30.4581 36.0484 30.5526 35.8243 30.4816L34.6133 30.0974C34.4601 30.0488 34.2936 30.078 34.1609 30.1687C34.0005 30.2781 33.8428 30.3744 33.6876 30.4575C33.5379 30.5377 33.3809 30.6154 33.2168 30.6906ZM36.3653 30.1387C36.248 30.3425 36.0047 30.437 35.7807 30.366L34.3976 29.9272C34.369 29.9181 34.3377 29.9233 34.3135 29.9413V29.9413C34.0843 30.1117 33.861 30.255 33.6437 30.3713C33.4244 30.4887 33.1892 30.6009 32.9379 30.708V30.708C32.9087 30.7204 32.8876 30.7465 32.8815 30.7777L32.5951 32.241C32.5492 32.4757 32.3436 32.645 32.1045 32.645H30.547C30.3078 32.645 30.1022 32.4757 30.0563 32.241L29.77 30.7777C29.7639 30.7465 29.7427 30.7204 29.7136 30.708V30.708C29.4622 30.6009 29.227 30.4887 29.0077 30.3713C28.7905 30.255 28.5672 30.1117 28.3379 29.9413V29.9413C28.3138 29.9233 28.2825 29.9181 28.2538 29.9272L26.8707 30.366C26.6467 30.437 26.4034 30.3425 26.2862 30.1388L25.5001 28.7727C25.3819 28.5673 25.4241 28.3071 25.6013 28.1496L26.6952 27.1772C26.7203 27.155 26.7324 27.1216 26.7274 27.0885V27.0885C26.6858 26.8125 26.6651 26.5366 26.6651 26.2607C26.6651 25.9849 26.6858 25.709 26.7274 25.4329V25.4329C26.7324 25.3998 26.7203 25.3665 26.6952 25.3442L25.6013 24.3718C25.4241 24.2144 25.3819 23.9542 25.5001 23.7487L26.2862 22.3827C26.4034 22.179 26.6467 22.0844 26.8707 22.1555L28.2538 22.5942C28.2825 22.6033 28.3138 22.5981 28.3379 22.5802V22.5802C28.5672 22.4097 28.7905 22.2665 29.0077 22.1501C29.227 22.0327 29.4622 21.9205 29.7136 21.8135V21.8135C29.7427 21.801 29.7639 21.7749 29.77 21.7438L30.0563 20.2805C30.1022 20.0458 30.3078 19.8765 30.547 19.8765H32.1045C32.3436 19.8765 32.5492 20.0458 32.5951 20.2805L32.8815 21.7438C32.8876 21.7749 32.9087 21.801 32.9379 21.8135V21.8135C33.1892 21.9205 33.4244 22.0327 33.6437 22.1501C33.861 22.2665 34.0843 22.4097 34.3135 22.5802V22.5802C34.3377 22.5981 34.369 22.6033 34.3976 22.5942L35.7807 22.1555C36.0047 22.0844 36.248 22.179 36.3653 22.3827L37.1514 23.7487C37.2696 23.9542 37.2273 24.2144 37.0502 24.3718L35.9562 25.3442C35.9312 25.3665 35.9191 25.3998 35.9241 25.4329V25.4329C35.9656 25.709 35.9864 25.9849 35.9864 26.2607C35.9864 26.5366 35.9656 26.8125 35.9241 27.0885V27.0885C35.9191 27.1216 35.9312 27.155 35.9562 27.1772L37.0502 28.1496C37.2273 28.3071 37.2696 28.5673 37.1514 28.7727L36.3653 30.1387ZM22.0749 44.1787C21.9146 44.2449 21.793 44.3826 21.7574 44.5523L21.3273 46.604C21.2788 46.8356 21.0745 47.0014 20.8379 47.0014H18.0992C17.8626 47.0014 17.6584 46.8356 17.6099 46.604L17.1798 44.5523C17.1442 44.3826 17.0226 44.2449 16.8623 44.1787C16.6011 44.0709 16.355 43.9478 16.1239 43.8093C15.8913 43.67 15.6617 43.515 15.4352 43.3446C15.2996 43.2425 15.123 43.2097 14.9619 43.2632L13.0728 43.8908C12.8467 43.9659 12.599 43.8711 12.4809 43.6641L11.109 41.2599C10.9921 41.0552 11.0342 40.7966 11.2099 40.6394L12.7461 39.2653C12.8663 39.1578 12.9265 38.999 12.9129 38.8383C12.8871 38.5347 12.8742 38.231 12.8742 37.9274C12.8742 37.6237 12.8871 37.3201 12.9129 37.0164C12.9265 36.8558 12.8663 36.6969 12.7461 36.5894L11.2099 35.2154C11.0342 35.0582 10.9921 34.7996 11.109 34.5949L12.4809 32.1906C12.599 31.9837 12.8467 31.8889 13.0728 31.964L14.9619 32.5915C15.123 32.6451 15.2996 32.6123 15.4352 32.5102C15.6617 32.3397 15.8913 32.1848 16.1239 32.0454C16.355 31.907 16.6011 31.7838 16.8623 31.676C17.0226 31.6099 17.1442 31.4722 17.1798 31.3025L17.6099 29.2507C17.6584 29.0192 17.8626 28.8533 18.0992 28.8533H20.8379C21.0745 28.8533 21.2788 29.0192 21.3273 29.2507L21.7574 31.3025C21.793 31.4722 21.9146 31.6099 22.0749 31.6761C22.3361 31.7838 22.5822 31.907 22.8133 32.0454C23.0459 32.1848 23.2754 32.3397 23.5019 32.5102C23.6376 32.6123 23.8142 32.6451 23.9753 32.5915L25.8643 31.964C26.0904 31.8889 26.3381 31.9837 26.4562 32.1906L27.8282 34.5949C27.9451 34.7996 27.903 35.0582 27.7273 35.2154L26.191 36.5894C26.0708 36.6969 26.0106 36.8558 26.0243 37.0164C26.05 37.3201 26.0629 37.6237 26.0629 37.9274C26.0629 38.231 26.05 38.5347 26.0243 38.8383C26.0106 38.999 26.0708 39.1578 26.191 39.2653L27.7273 40.6394C27.903 40.7966 27.9451 41.0551 27.8282 41.2599L26.4562 43.6641C26.3381 43.8711 26.0904 43.9659 25.8643 43.8908L23.9753 43.2632C23.8142 43.2097 23.6376 43.2425 23.5019 43.3446C23.2754 43.515 23.0459 43.67 22.8133 43.8093C22.5822 43.9478 22.3361 44.0709 22.0749 44.1787ZM26.4129 43.5475C26.2948 43.7544 26.0471 43.8493 25.821 43.7742L23.7465 43.085C23.7163 43.075 23.6831 43.081 23.6583 43.1009V43.1009C23.3656 43.336 23.068 43.5441 22.7654 43.7254C22.4645 43.9057 22.1372 44.0598 21.7831 44.1875V44.1875C21.752 44.1987 21.7289 44.2253 21.7221 44.2577L21.2506 46.5068C21.2021 46.7384 20.9979 46.9042 20.7613 46.9042H18.1759C17.9393 46.9042 17.7351 46.7384 17.6865 46.5068L17.2151 44.2577C17.2083 44.2253 17.1852 44.1987 17.154 44.1875V44.1875C16.8 44.0598 16.4726 43.9057 16.1718 43.7254C15.8692 43.5441 15.5716 43.336 15.2788 43.1009V43.1009C15.2541 43.081 15.2209 43.075 15.1907 43.085L13.1162 43.7742C12.8901 43.8493 12.6424 43.7544 12.5243 43.5475L11.2305 41.2803C11.1136 41.0755 11.1557 40.8169 11.3314 40.6598L12.9995 39.1677C13.0233 39.1465 13.0354 39.115 13.032 39.0833V39.0833C12.9901 38.698 12.9691 38.3127 12.9691 37.9274C12.9691 37.5421 12.9901 37.1568 13.032 36.7715V36.7715C13.0354 36.7398 13.0233 36.7083 12.9995 36.687L11.3314 35.195C11.1557 35.0378 11.1136 34.7793 11.2305 34.5745L12.5243 32.3073C12.6424 32.1003 12.8901 32.0055 13.1162 32.0806L15.1907 32.7698C15.2209 32.7798 15.2541 32.7738 15.2788 32.7539V32.7539C15.5716 32.5188 15.8692 32.3107 16.1718 32.1294C16.4726 31.9491 16.8 31.795 17.154 31.6672V31.6672C17.1852 31.656 17.2083 31.6294 17.2151 31.597L17.6865 29.3479C17.7351 29.1164 17.9393 28.9505 18.1759 28.9505H20.7613C20.9979 28.9505 21.2021 29.1164 21.2506 29.3479L21.7221 31.597C21.7289 31.6294 21.752 31.656 21.7831 31.6672V31.6672C22.1372 31.795 22.4645 31.9491 22.7654 32.1294C23.068 32.3107 23.3656 32.5188 23.6583 32.7539V32.7539C23.6831 32.7738 23.7163 32.7798 23.7465 32.7698L25.821 32.0806C26.0471 32.0055 26.2948 32.1003 26.4129 32.3073L27.7067 34.5745C27.8235 34.7793 27.7815 35.0378 27.6058 35.195L25.9376 36.687C25.9138 36.7083 25.9018 36.7398 25.9052 36.7715V36.7715C25.9471 37.1568 25.968 37.5421 25.968 37.9274C25.968 38.3127 25.9471 38.698 25.9052 39.0833V39.0833C25.9018 39.115 25.9138 39.1465 25.9376 39.1677L27.6058 40.6598C27.7815 40.8169 27.8235 41.0755 27.7067 41.2803L26.4129 43.5475ZM29.4674 28.1606C29.9818 28.6863 30.6029 28.9505 31.3257 28.9505C32.0485 28.9505 32.6696 28.6863 33.184 28.1606C33.6983 27.6348 33.9569 26.9997 33.9569 26.2607C33.9569 25.5217 33.6983 24.8867 33.184 24.3609C32.6696 23.8351 32.0485 23.5709 31.3257 23.5709C30.6029 23.5709 29.9818 23.8351 29.4674 24.3609C28.9531 24.8867 28.6945 25.5217 28.6945 26.2607C28.6945 26.9997 28.9531 27.6348 29.4674 28.1606ZM16.7068 40.7508C17.4645 41.5254 18.387 41.9135 19.4686 41.9135C20.5502 41.9135 21.4726 41.5254 22.2304 40.7508C22.9882 39.9762 23.3679 39.0332 23.3679 37.9274C23.3679 36.8216 22.9882 35.8785 22.2304 35.1039C21.4726 34.3293 20.5502 33.9413 19.4686 33.9413C18.387 33.9413 17.4645 34.3293 16.7068 35.1039C15.949 35.8785 15.5693 36.8216 15.5693 37.9274C15.5693 39.0332 15.949 39.9762 16.7068 40.7508ZM29.5345 28.0917C30.0312 28.5995 30.6282 28.8533 31.3257 28.8533C32.0232 28.8533 32.6203 28.5995 33.117 28.0917C33.6137 27.584 33.862 26.9737 33.862 26.2607C33.862 25.5478 33.6137 24.9374 33.117 24.4297C32.6203 23.922 32.0232 23.6681 31.3257 23.6681C30.6282 23.6681 30.0312 23.922 29.5345 24.4297C29.0378 24.9374 28.7894 25.5478 28.7894 26.2607C28.7894 26.9737 29.0378 27.584 29.5345 28.0917ZM16.7738 40.682C17.5135 41.4382 18.4118 41.8163 19.4686 41.8163C20.5254 41.8163 21.4236 41.4382 22.1634 40.682C22.9031 39.9258 23.273 39.0076 23.273 37.9274C23.273 36.8471 22.9031 35.9289 22.1634 35.1728C21.4236 34.4166 20.5254 34.0385 19.4686 34.0385C18.4118 34.0385 17.5135 34.4166 16.7738 35.1728C16.034 35.9289 15.6642 36.8471 15.6642 37.9274C15.6642 39.0076 16.034 39.9258 16.7738 40.682Z" fill="white"/>
<path fill-rule="evenodd" clip-rule="evenodd" d="M8.11452 27.5556C7.83838 27.5556 7.61452 27.3317 7.61452 27.0556V12.5C7.61452 12.2239 7.83838 12 8.11452 12H10.9099C11.186 12 11.4099 12.2239 11.4099 12.5V27.0556C11.4099 27.3317 11.186 27.5556 10.9099 27.5556H8.11452Z" fill="white"/>
<path fill-rule="evenodd" clip-rule="evenodd" d="M9.87017 24.4392C9.67397 24.6402 9.35071 24.6402 9.15451 24.4392L5.51899 20.7141C5.32279 20.5131 4.99953 20.5131 4.80333 20.7141L2.81826 22.7481C2.6287 22.9423 2.6287 23.2523 2.81826 23.4465L9.15451 29.9389C9.35071 30.1399 9.67397 30.1399 9.87017 29.9389L16.2064 23.4465C16.396 23.2523 16.396 22.9423 16.2064 22.7481L14.2214 20.7141C14.0252 20.5131 13.7019 20.5131 13.5057 20.7141L9.87017 24.4392Z" fill="white"/>
</svg>
