<svg width="40" height="60" viewBox="0 0 40 60" fill="none" xmlns="http://www.w3.org/2000/svg">
<path d="M17 48C16.3583 48 15.809 47.762 15.3521 47.286C14.8951 46.81 14.6667 46.2378 14.6667 45.5694V30.9861C14.6667 30.3177 14.8951 29.7455 15.3521 29.2695C15.809 28.7935 16.3583 28.5556 17 28.5556H35.6667C36.3083 28.5556 36.8576 28.7935 37.3146 29.2695C37.7715 29.7455 38 30.3177 38 30.9861V45.5694C38 46.2378 37.7715 46.81 37.3146 47.286C36.8576 47.762 36.3083 48 35.6667 48H17ZM26.6061 39.3155C26.4403 39.4234 26.2264 39.4234 26.0605 39.3155L17.7728 33.9198C17.4402 33.7033 17 33.9419 17 34.3388V45.0694C17 45.3456 17.2239 45.5694 17.5 45.5694H35.1667C35.4428 45.5694 35.6667 45.3456 35.6667 45.0694V34.3388C35.6667 33.9419 35.2265 33.7033 34.8939 33.9198L26.6061 39.3155ZM26.0605 36.8849C26.2264 36.9929 26.4403 36.9929 26.6061 36.8849L34.255 31.9051C34.672 31.6337 34.4798 30.9861 33.9822 30.9861H18.6844C18.1869 30.9861 17.9947 31.6337 18.4116 31.9051L26.0605 36.8849Z" fill="white"/>
<path d="M6.88889 31.9444C6.88889 32.2206 6.66503 32.4444 6.38889 32.4444H3.5C3.22386 32.4444 3 32.2206 3 31.9444V29.0556C3 28.7794 3.22386 28.5556 3.5 28.5556H6.38889C6.66503 28.5556 6.88889 28.7794 6.88889 29.0556V31.9444Z" fill="white"/>
<path d="M6.88889 24.1667C6.88889 24.4428 6.66503 24.6667 6.38889 24.6667H3.5C3.22386 24.6667 3 24.4428 3 24.1667V13.5C3 13.2239 3.22386 13 3.5 13H6.38889C6.66503 13 6.88889 13.2239 6.88889 13.5V24.1667Z" fill="white"/>
</svg>
