<svg width="40" height="60" viewBox="0 0 40 60" fill="none" xmlns="http://www.w3.org/2000/svg">
<path fill-rule="evenodd" clip-rule="evenodd" d="M11.2991 29.8571C11.0213 29.8571 10.7961 30.081 10.7961 30.3571V32.7857C10.7961 33.0619 11.0213 33.2857 11.2991 33.2857H12.0536C12.3314 33.2857 12.5565 33.0619 12.5565 32.7857V30.3571C12.5565 30.081 12.3314 29.8571 12.0536 29.8571H11.2991ZM9.03572 34.5C9.03572 34.7761 9.26091 35 9.53869 35H13.814C14.0918 35 14.317 34.7761 14.317 34.5V28.6429C14.317 28.3667 14.0918 28.1429 13.814 28.1429H9.53869C9.26091 28.1429 9.03572 28.3667 9.03572 28.6429V34.5Z" fill="white"/>
<path fill-rule="evenodd" clip-rule="evenodd" d="M21.3586 25.2143C21.3586 24.9381 21.1334 24.7143 20.8557 24.7143H18.3408C18.063 24.7143 17.8378 24.9381 17.8378 25.2143V25.9286C17.8378 26.2047 18.063 26.4286 18.3408 26.4286H20.8557C21.1334 26.4286 21.3586 26.2047 21.3586 25.9286V25.2143ZM16.5804 23C16.3026 23 16.0774 23.2239 16.0774 23.5V27.6429C16.0774 27.919 16.3026 28.1429 16.5804 28.1429H22.6161C22.8939 28.1429 23.1191 27.919 23.1191 27.6429V23.5C23.1191 23.2239 22.8939 23 22.6161 23H16.5804Z" fill="white"/>
<path fill-rule="evenodd" clip-rule="evenodd" d="M10.7961 25.2143C10.7961 24.9381 11.0213 24.7143 11.2991 24.7143H16.0019C16.2797 24.7143 16.5049 24.9381 16.5049 25.2143V25.9286C16.5049 26.2047 16.2797 26.4286 16.0019 26.4286H13.0595C12.7817 26.4286 12.5565 26.6524 12.5565 26.9286V28.0102C12.5565 28.2863 12.3314 28.5102 12.0536 28.5102H11.2991C11.0213 28.5102 10.7961 28.2863 10.7961 28.0102V25.2143Z" fill="white"/>
<path d="M37.1227 47.6464C36.9263 47.8417 36.6078 47.8417 36.4114 47.6464L30.5996 41.8691C30.4184 41.6889 30.1311 41.6751 29.919 41.8181C29.494 42.1047 29.0228 42.3402 28.5055 42.5249C27.8363 42.7636 27.1242 42.883 26.3693 42.883C24.499 42.883 22.9162 42.2392 21.6208 40.9514C20.3254 39.6636 19.6776 38.0902 19.6776 36.231C19.6776 34.3718 20.3254 32.7984 21.6208 31.5106C22.9162 30.2228 24.499 29.5789 26.3693 29.5789C28.2395 29.5789 29.8223 30.2228 31.1178 31.5106C32.4132 32.7984 33.0609 34.3718 33.0609 36.231C33.0609 36.9815 32.9408 37.6893 32.7006 38.3545C32.5149 38.8688 32.2779 39.3372 31.9896 39.7597C31.8458 39.9706 31.8597 40.2562 32.0409 40.4363L37.8527 46.2137C38.0491 46.409 38.0491 46.7255 37.8527 46.9208L37.1227 47.6464ZM26.3693 40.8363C27.6561 40.8363 28.75 40.3885 29.6508 39.4931C30.5516 38.5976 31.002 37.5102 31.002 36.231C31.002 34.9518 30.5516 33.8644 29.6508 32.9689C28.75 32.0735 27.6561 31.6257 26.3693 31.6257C25.0824 31.6257 23.9886 32.0735 23.0878 32.9689C22.187 33.8644 21.7366 34.9518 21.7366 36.231C21.7366 37.5102 22.187 38.5976 23.0878 39.4931C23.9886 40.3885 25.0824 40.8363 26.3693 40.8363Z" fill="white"/>
<path fill-rule="evenodd" clip-rule="evenodd" d="M11.3505 13.1464C11.4448 13.0527 11.5727 13 11.7061 13H28.44C28.7178 13 28.943 13.2239 28.943 13.5V25.8947C28.943 26.9121 28.1133 27.7368 27.0899 27.7368C26.0665 27.7368 25.2368 26.9121 25.2368 25.8947V17.1842C25.2368 16.9081 25.0117 16.6842 24.7339 16.6842H13.2413C13.1079 16.6842 12.9799 16.7369 12.8856 16.8307L6.85346 22.8271C6.75913 22.9209 6.70614 23.0481 6.70614 23.1807V43.8158C6.70614 44.0919 6.93133 44.3158 7.20912 44.3158H27.0899C28.1133 44.3158 28.943 45.1405 28.943 46.1579C28.943 47.1753 28.1133 48 27.0899 48H3.50298C3.22519 48 3 47.7761 3 47.5V21.6546C3 21.522 3.05299 21.3948 3.14732 21.3011L11.3505 13.1464Z" fill="white"/>
</svg>
