<svg width="40" height="60" viewBox="0 0 40 60" fill="none" xmlns="http://www.w3.org/2000/svg">
<path fill-rule="evenodd" clip-rule="evenodd" d="M34.1111 25.1667C34.1111 24.8905 33.8873 24.6667 33.6111 24.6667H26.8333C26.5572 24.6667 26.3333 24.8905 26.3333 25.1667V28.0556C26.3333 28.3317 26.5572 28.5556 26.8333 28.5556H33.6111C33.8873 28.5556 34.1111 28.3317 34.1111 28.0556V25.1667ZM22.9444 20.7778C22.6683 20.7778 22.4444 21.0016 22.4444 21.2778V31.9444C22.4444 32.2206 22.6683 32.4444 22.9444 32.4444H37.5C37.7761 32.4444 38 32.2206 38 31.9444V21.2778C38 21.0016 37.7761 20.7778 37.5 20.7778H22.9444Z" fill="white"/>
<path fill-rule="evenodd" clip-rule="evenodd" d="M18.5556 40.7222C18.5556 40.4461 18.3317 40.2222 18.0556 40.2222H11.2778C11.0016 40.2222 10.7778 40.4461 10.7778 40.7222V43.6111C10.7778 43.8873 11.0016 44.1111 11.2778 44.1111H18.0556C18.3317 44.1111 18.5556 43.8873 18.5556 43.6111V40.7222ZM7.38889 36.3333C7.11275 36.3333 6.88889 36.5572 6.88889 36.8333V47.5C6.88889 47.7761 7.11275 48 7.38889 48H21.9444C22.2206 48 22.4444 47.7761 22.4444 47.5V36.8333C22.4444 36.5572 22.2206 36.3333 21.9444 36.3333H7.38889Z" fill="white"/>
<path fill-rule="evenodd" clip-rule="evenodd" d="M31.6667 31.1755C31.9428 31.1755 32.1667 31.3993 32.1667 31.6755V43.6111C32.1667 43.8873 31.9428 44.1111 31.6667 44.1111H22C21.7239 44.1111 21.5 43.8873 21.5 43.6111V40.7222C21.5 40.4461 21.7239 40.2222 22 40.2222H27.7778C28.0539 40.2222 28.2778 39.9984 28.2778 39.7222V31.6755C28.2778 31.3993 28.5016 31.1755 28.7778 31.1755H31.6667Z" fill="white"/>
<path d="M3.72361 13.3618C3.39116 13.1956 3 13.4373 3 13.809V27.7465C3 28.1182 3.39116 28.36 3.72361 28.1938L17.6611 21.225C18.0297 21.0407 18.0297 20.5148 17.6611 20.3306L3.72361 13.3618Z" fill="white"/>
</svg>
