<svg width="40" height="60" viewBox="0 0 40 60" fill="none" xmlns="http://www.w3.org/2000/svg">
<path fill-rule="evenodd" clip-rule="evenodd" d="M12.2105 13C13.2279 13 14.0526 13.8247 14.0526 14.8421C14.0526 17.2833 12.8506 19.5703 11.2105 21.2105C9.57035 22.8506 7.28332 24.0526 4.84211 24.0526C3.82474 24.0526 3 23.2279 3 22.2105C3 21.1932 3.82474 20.3684 4.84211 20.3684C6.0851 20.3684 7.48228 19.7284 8.60533 18.6053C9.72838 17.4823 10.3684 16.0851 10.3684 14.8421C10.3684 13.8247 11.1932 13 12.2105 13ZM19.5789 13C20.5963 13 21.4211 13.8247 21.4211 14.8421C21.4211 19.1254 19.2979 23.2546 16.2762 26.2762C13.2546 29.2979 9.12543 31.4211 4.84211 31.4211C3.82474 31.4211 3 30.5963 3 29.5789C3 28.5616 3.82474 27.7368 4.84211 27.7368C7.9272 27.7368 11.1665 26.1757 13.6711 23.6711C16.1757 21.1665 17.7368 17.9272 17.7368 14.8421C17.7368 13.8247 18.5616 13 19.5789 13Z" fill="white"/>
<path fill-rule="evenodd" clip-rule="evenodd" d="M34.3158 26.3947C34.3158 26.1186 34.0919 25.8947 33.8158 25.8947H27.4474C27.1712 25.8947 26.9474 26.1186 26.9474 26.3947V29.0789C26.9474 29.3551 27.1712 29.5789 27.4474 29.5789H33.8158C34.0919 29.5789 34.3158 29.3551 34.3158 29.0789V26.3947ZM23.7632 22.2105C23.487 22.2105 23.2632 22.4344 23.2632 22.7105V32.7632C23.2632 33.0393 23.487 33.2632 23.7632 33.2632H37.5C37.7761 33.2632 38 33.0393 38 32.7632V22.7105C38 22.4344 37.7761 22.2105 37.5 22.2105H23.7632Z" fill="white"/>
<path fill-rule="evenodd" clip-rule="evenodd" d="M19.5789 41.1316C19.5789 40.8554 19.3551 40.6316 19.0789 40.6316H12.7105C12.4344 40.6316 12.2105 40.8554 12.2105 41.1316V43.8158C12.2105 44.0919 12.4344 44.3158 12.7105 44.3158H19.0789C19.3551 44.3158 19.5789 44.0919 19.5789 43.8158V41.1316ZM9.02632 36.9474C8.75017 36.9474 8.52632 37.1712 8.52632 37.4474V47.5C8.52632 47.7761 8.75017 48 9.02632 48H22.7632C23.0393 48 23.2632 47.7761 23.2632 47.5V37.4474C23.2632 37.1712 23.0393 36.9474 22.7632 36.9474H9.02632Z" fill="white"/>
<path fill-rule="evenodd" clip-rule="evenodd" d="M31.9989 32C32.2755 32 32.4995 32.2245 32.4989 32.5011L32.4748 43.8169C32.4742 44.0926 32.2505 44.3158 31.9748 44.3158H22.5C22.2239 44.3158 22 44.0919 22 43.8158V41.1316C22 40.8554 22.2239 40.6316 22.5 40.6316H28.2895C28.5656 40.6316 28.7895 40.4077 28.7895 40.1316V32.5C28.7895 32.2239 29.0133 32 29.2895 32H31.9989Z" fill="white"/>
</svg>
