<svg width="40" height="60" viewBox="0 0 40 60" fill="none" xmlns="http://www.w3.org/2000/svg">
<path fill-rule="evenodd" clip-rule="evenodd" d="M7.38889 28.5556C7.11275 28.5556 6.88889 28.7794 6.88889 29.0556V35.8333C6.88889 36.1095 7.11275 36.3333 7.38889 36.3333H10.2778C10.5539 36.3333 10.7778 36.1095 10.7778 35.8333V29.0556C10.7778 28.7794 10.5539 28.5556 10.2778 28.5556H7.38889ZM3 39.7222C3 39.9984 3.22386 40.2222 3.5 40.2222H14.1667C14.4428 40.2222 14.6667 39.9984 14.6667 39.7222V25.1667C14.6667 24.8905 14.4428 24.6667 14.1667 24.6667H3.5C3.22386 24.6667 3 24.8905 3 25.1667V39.7222Z" fill="white"/>
<path fill-rule="evenodd" clip-rule="evenodd" d="M30.2222 17.3889C30.2222 17.1127 29.9984 16.8889 29.7222 16.8889H22.9444C22.6683 16.8889 22.4444 17.1127 22.4444 17.3889V20.2778C22.4444 20.5539 22.6683 20.7778 22.9444 20.7778H29.7222C29.9984 20.7778 30.2222 20.5539 30.2222 20.2778V17.3889ZM19.0556 13C18.7794 13 18.5556 13.2239 18.5556 13.5V24.1667C18.5556 24.4428 18.7794 24.6667 19.0556 24.6667H33.6111C33.8873 24.6667 34.1111 24.4428 34.1111 24.1667V13.5C34.1111 13.2239 33.8873 13 33.6111 13H19.0556Z" fill="white"/>
<path fill-rule="evenodd" clip-rule="evenodd" d="M6.88889 17.3889C6.88889 17.1127 7.11275 16.8889 7.38889 16.8889H19C19.2761 16.8889 19.5 17.1127 19.5 17.3889V20.2778C19.5 20.5539 19.2761 20.7778 19 20.7778H11.2778C11.0016 20.7778 10.7778 21.0016 10.7778 21.2778V25C10.7778 25.2761 10.5539 25.5 10.2778 25.5H7.38889C7.11275 25.5 6.88889 25.2761 6.88889 25V17.3889Z" fill="white"/>
<path d="M36.8412 47.6464C36.6459 47.8417 36.3294 47.8417 36.1341 47.6464L29.9985 41.5109C29.8184 41.3307 29.5328 41.3168 29.3225 41.4607C28.8712 41.7695 28.3699 42.0228 27.8187 42.2207C27.1165 42.4727 26.3693 42.5988 25.5772 42.5988C23.6147 42.5988 21.9538 41.9191 20.5945 40.5598C19.2352 39.2005 18.5556 37.5396 18.5556 35.5772C18.5556 33.6147 19.2352 31.9538 20.5945 30.5945C21.9538 29.2352 23.6147 28.5556 25.5772 28.5556C27.5396 28.5556 29.2005 29.2352 30.5598 30.5945C31.9191 31.9538 32.5988 33.6147 32.5988 35.5772C32.5988 36.3693 32.4727 37.1165 32.2207 37.8187C32.0228 38.3699 31.7695 38.8712 31.4607 39.3225C31.3168 39.5328 31.3307 39.8184 31.5109 39.9985L37.6464 46.1341C37.8417 46.3294 37.8417 46.6459 37.6464 46.8412L36.8412 47.6464ZM25.5772 40.4383C26.9275 40.4383 28.0752 39.9657 29.0204 39.0204C29.9657 38.0752 30.4383 36.9275 30.4383 35.5772C30.4383 34.2269 29.9657 33.0791 29.0204 32.1339C28.0752 31.1887 26.9275 30.716 25.5772 30.716C24.2269 30.716 23.0791 31.1887 22.1339 32.1339C21.1887 33.0791 20.716 34.2269 20.716 35.5772C20.716 36.9275 21.1887 38.0752 22.1339 39.0204C23.0791 39.9657 24.2269 40.4383 25.5772 40.4383Z" fill="white"/>
</svg>
