<svg width="40" height="60" viewBox="0 0 40 60" fill="none" xmlns="http://www.w3.org/2000/svg">
<path d="M3 13.5C3 13.2239 3.22386 13 3.5 13H6.38889C6.66503 13 6.88889 13.2239 6.88889 13.5V24.1667C6.88889 24.4428 6.66503 24.6667 6.38889 24.6667H3.5C3.22386 24.6667 3 24.4428 3 24.1667V13.5Z" fill="white"/>
<path d="M3 29.0556C3 28.7794 3.22386 28.5556 3.5 28.5556H6.38889C6.66503 28.5556 6.88889 28.7794 6.88889 29.0556V31.9444C6.88889 32.2206 6.66503 32.4444 6.38889 32.4444H3.5C3.22386 32.4444 3 32.2206 3 31.9444V29.0556Z" fill="white"/>
<path d="M37.6382 47.2764C37.8044 47.6088 37.5627 48 37.191 48H15.4757C15.104 48 14.8622 47.6088 15.0285 47.2764L25.8861 25.5611C26.0704 25.1926 26.5963 25.1926 26.7805 25.5611L37.6382 47.2764Z" fill="white"/>
</svg>
