<svg width="40" height="60" viewBox="0 0 40 60" fill="none" xmlns="http://www.w3.org/2000/svg">
<path fill-rule="evenodd" clip-rule="evenodd" d="M11.2811 15.5499C11.5588 15.5499 11.7839 15.7751 11.7839 16.053V30.6989C11.7839 30.9767 11.5588 31.202 11.2811 31.202H8.46976C8.19204 31.202 7.96691 30.9767 7.96691 30.6989V16.053C7.96691 15.7751 8.19204 15.5499 8.46976 15.5499H11.2811Z" fill="white"/>
<path fill-rule="evenodd" clip-rule="evenodd" d="M9.5154 18.6856C9.71272 18.4833 10.0378 18.4833 10.2351 18.6856L13.8914 22.4338C14.0887 22.6361 14.4138 22.6361 14.6112 22.4338L16.6076 20.3872C16.7982 20.1917 16.7982 19.8798 16.6076 19.6844L10.2351 13.1517C10.0378 12.9494 9.71272 12.9494 9.5154 13.1517L3.14298 19.6844C2.95234 19.8798 2.95234 20.1917 3.14298 20.3872L5.13938 22.4338C5.3367 22.6361 5.66181 22.6361 5.85913 22.4338L9.5154 18.6856Z" fill="white"/>
<path d="M26.4344 36.4286C24.8441 36.4286 23.4827 35.8621 22.3502 34.7291C21.2178 33.5961 20.6515 32.234 20.6515 30.6429C20.6515 29.0519 21.2178 27.6898 22.3502 26.5568C23.4827 25.4238 24.8441 24.8573 26.4344 24.8573C28.0246 24.8573 29.386 25.4238 30.5185 26.5568C31.6509 27.6898 32.2172 29.0519 32.2172 30.6429C32.2172 32.234 31.6509 33.5961 30.5185 34.7291C29.386 35.8621 28.0246 36.4286 26.4344 36.4286ZM15.3687 48C15.0926 48 14.8687 47.7761 14.8687 47.5V43.95C14.8687 43.1304 15.0795 42.377 15.5012 41.69C15.9229 41.0029 16.4831 40.4786 17.1818 40.117C18.6757 39.3697 20.1937 38.8092 21.7358 38.4355C23.2779 38.0619 24.8441 37.8751 26.4344 37.8751C28.0246 37.8751 29.5908 38.0619 31.1329 38.4355C32.675 38.8092 34.193 39.3697 35.6869 40.117C36.3856 40.4786 36.9458 41.0029 37.3675 41.69C37.7892 42.377 38 43.1304 38 43.95V47.5C38 47.7761 37.7761 48 37.5 48H15.3687ZM17.7601 44.6072C17.7601 44.8833 17.984 45.1072 18.2601 45.1072H34.6086C34.8847 45.1072 35.1086 44.8833 35.1086 44.6072V43.95C35.1086 43.6848 35.0423 43.4438 34.9098 43.2268C34.7773 43.0098 34.6026 42.8411 34.3857 42.7206C33.0846 42.0697 31.7714 41.5815 30.4462 41.2561C29.121 40.9306 27.7837 40.7679 26.4344 40.7679C25.085 40.7679 23.7478 40.9306 22.4225 41.2561C21.0973 41.5815 19.7841 42.0697 18.483 42.7206C18.2661 42.8411 18.0914 43.0098 17.9589 43.2268C17.8264 43.4438 17.7601 43.6848 17.7601 43.95V44.6072ZM26.4344 33.5358C27.2295 33.5358 27.9102 33.2525 28.4764 32.686C29.0427 32.1195 29.3258 31.4385 29.3258 30.6429C29.3258 29.8474 29.0427 29.1664 28.4764 28.5999C27.9102 28.0334 27.2295 27.7501 26.4344 27.7501C25.6392 27.7501 24.9585 28.0334 24.3923 28.5999C23.8261 29.1664 23.5429 29.8474 23.5429 30.6429C23.5429 31.4385 23.8261 32.1195 24.3923 32.686C24.9585 33.2525 25.6392 33.5358 26.4344 33.5358Z" fill="white"/>
</svg>
