<svg width="40" height="60" viewBox="0 0 40 60" fill="none" xmlns="http://www.w3.org/2000/svg">
<path fill-rule="evenodd" clip-rule="evenodd" d="M12.2105 13C13.2279 13 14.0526 13.8247 14.0526 14.8421C14.0526 17.2833 12.8506 19.5703 11.2105 21.2105C9.57035 22.8506 7.28332 24.0526 4.84211 24.0526C3.82474 24.0526 3 23.2279 3 22.2105C3 21.1932 3.82474 20.3684 4.84211 20.3684C6.0851 20.3684 7.48228 19.7284 8.60533 18.6053C9.72838 17.4823 10.3684 16.0851 10.3684 14.8421C10.3684 13.8247 11.1932 13 12.2105 13ZM19.5789 13C20.5963 13 21.4211 13.8247 21.4211 14.8421C21.4211 19.1254 19.2979 23.2546 16.2762 26.2762C13.2546 29.2979 9.12543 31.4211 4.84211 31.4211C3.82474 31.4211 3 30.5963 3 29.5789C3 28.5616 3.82474 27.7368 4.84211 27.7368C7.9272 27.7368 11.1665 26.1757 13.6711 23.6711C16.1757 21.1665 17.7368 17.9272 17.7368 14.8421C17.7368 13.8247 18.5616 13 19.5789 13Z" fill="white"/>
<path d="M26.9474 36.9474C25.4276 36.9474 24.1266 36.4063 23.0444 35.324C21.9622 34.2418 21.4211 32.9408 21.4211 31.4211C21.4211 29.9013 21.9622 28.6003 23.0444 27.5181C24.1266 26.4359 25.4276 25.8947 26.9474 25.8947C28.4671 25.8947 29.7681 26.4359 30.8503 27.5181C31.9326 28.6003 32.4737 29.9013 32.4737 31.4211C32.4737 32.9408 31.9326 34.2418 30.8503 35.324C29.7681 36.4063 28.4671 36.9474 26.9474 36.9474ZM16.3947 48C16.1186 48 15.8947 47.7761 15.8947 47.5V44.1316C15.8947 43.3487 16.0962 42.6291 16.4992 41.9729C16.9021 41.3166 17.4375 40.8158 18.1053 40.4704C19.5329 39.7566 20.9836 39.2212 22.4572 38.8643C23.9309 38.5074 25.4276 38.3289 26.9474 38.3289C28.4671 38.3289 29.9638 38.5074 31.4375 38.8643C32.9112 39.2212 34.3618 39.7566 35.7895 40.4704C36.4572 40.8158 36.9926 41.3166 37.3956 41.9729C37.7985 42.6291 38 43.3487 38 44.1316V47.5C38 47.7761 37.7761 48 37.5 48H16.3947ZM18.6579 44.7368C18.6579 45.013 18.8818 45.2368 19.1579 45.2368H34.7368C35.013 45.2368 35.2368 45.013 35.2368 44.7368V44.1316C35.2368 43.8783 35.1735 43.648 35.0469 43.4408C34.9202 43.2336 34.7533 43.0724 34.5461 42.9572C33.3026 42.3355 32.0477 41.8692 30.7812 41.5584C29.5148 41.2475 28.2368 41.0921 26.9474 41.0921C25.6579 41.0921 24.3799 41.2475 23.1135 41.5584C21.847 41.8692 20.5921 42.3355 19.3487 42.9572C19.1414 43.0724 18.9745 43.2336 18.8479 43.4408C18.7212 43.648 18.6579 43.8783 18.6579 44.1316V44.7368ZM26.9474 34.1842C27.7072 34.1842 28.3577 33.9137 28.8988 33.3725C29.44 32.8314 29.7105 32.1809 29.7105 31.4211C29.7105 30.6612 29.44 30.0107 28.8988 29.4696C28.3577 28.9285 27.7072 28.6579 26.9474 28.6579C26.1875 28.6579 25.537 28.9285 24.9959 29.4696C24.4548 30.0107 24.1842 30.6612 24.1842 31.4211C24.1842 32.1809 24.4548 32.8314 24.9959 33.3725C25.537 33.9137 26.1875 34.1842 26.9474 34.1842Z" fill="white"/>
</svg>
