<svg width="40" height="60" viewBox="0 0 40 60" fill="none" xmlns="http://www.w3.org/2000/svg">
<path fill-rule="evenodd" clip-rule="evenodd" d="M8.46947 28.5556C8.19175 28.5556 7.96662 28.3317 7.96662 28.0556V13.5C7.96662 13.2239 8.19175 13 8.46947 13H11.2808C11.5585 13 11.7836 13.2239 11.7836 13.5V28.0556C11.7836 28.3317 11.5585 28.5556 11.2808 28.5556H8.46947Z" fill="white"/>
<path fill-rule="evenodd" clip-rule="evenodd" d="M10.2351 25.4392C10.0378 25.6402 9.71272 25.6402 9.5154 25.4392L5.85913 21.7141C5.66181 21.5131 5.3367 21.5131 5.13938 21.7141L3.14298 23.7481C2.95234 23.9423 2.95234 24.2523 3.14298 24.4465L9.5154 30.9389C9.71272 31.1399 10.0378 31.1399 10.2352 30.9389L16.6076 24.4465C16.7982 24.2523 16.7982 23.9423 16.6076 23.7481L14.6112 21.7141C14.4139 21.5131 14.0887 21.5131 13.8914 21.7141L10.2351 25.4392Z" fill="white"/>
<path d="M26.4344 36.5C24.8441 36.5 23.4827 35.937 22.3502 34.8109C21.2178 33.6849 20.6515 32.3313 20.6515 30.75C20.6515 29.1687 21.2178 27.8151 22.3502 26.6891C23.4827 25.563 24.8441 25 26.4344 25C28.0246 25 29.386 25.563 30.5185 26.6891C31.6509 27.8151 32.2172 29.1687 32.2172 30.75C32.2172 32.3313 31.6509 33.6849 30.5185 34.8109C29.386 35.937 28.0246 36.5 26.4344 36.5ZM15.3687 48C15.0926 48 14.8687 47.7761 14.8687 47.5V43.975C14.8687 43.1604 15.0795 42.4117 15.5012 41.7289C15.9229 41.0461 16.4831 40.525 17.1818 40.1656C18.6757 39.4229 20.1937 38.8659 21.7358 38.4945C23.2779 38.1232 24.8441 37.9375 26.4344 37.9375C28.0246 37.9375 29.5908 38.1232 31.1329 38.4945C32.675 38.8659 34.193 39.4229 35.6869 40.1656C36.3856 40.525 36.9458 41.0461 37.3675 41.7289C37.7892 42.4117 38 43.1604 38 43.975V47.5C38 47.7761 37.7761 48 37.5 48H15.3687ZM17.7601 44.625C17.7601 44.9011 17.984 45.125 18.2601 45.125H34.6086C34.8847 45.125 35.1086 44.9011 35.1086 44.625V43.975C35.1086 43.7115 35.0423 43.4719 34.9098 43.2562C34.7773 43.0406 34.6026 42.8729 34.3857 42.7531C33.0846 42.1063 31.7714 41.6211 30.4462 41.2977C29.121 40.9742 27.7837 40.8125 26.4344 40.8125C25.085 40.8125 23.7478 40.9742 22.4225 41.2977C21.0973 41.6211 19.7841 42.1063 18.483 42.7531C18.2661 42.8729 18.0914 43.0406 17.9589 43.2562C17.8264 43.4719 17.7601 43.7115 17.7601 43.975V44.625ZM26.4344 33.625C27.2295 33.625 27.9102 33.3435 28.4764 32.7805C29.0426 32.2174 29.3258 31.5406 29.3258 30.75C29.3258 29.9594 29.0426 29.2826 28.4764 28.7195C27.9102 28.1565 27.2295 27.875 26.4344 27.875C25.6392 27.875 24.9585 28.1565 24.3923 28.7195C23.8261 29.2826 23.5429 29.9594 23.5429 30.75C23.5429 31.5406 23.8261 32.2174 24.3923 32.7805C24.9585 33.3435 25.6392 33.625 26.4344 33.625Z" fill="white"/>
</svg>
